<svg xmlns="http://www.w3.org/2000/svg" viewBox="0 440 630 410">
<title>REJECTED PEBBLE DRAFT: colorless: partial observed reverse pattern</title>
<desc>REJECTED: these contours cross dark bands and lose the connected ink network. Retained only for comparison. Measured wheel, source-traced pebbles, central family glyph and ten sector glyph cutouts. Missing geometry is unknown, not blank authored artwork. Positive lighter fields only; not a final pigment mask. See shared-layout.json.</desc>
<g fill="currentColor" fill-rule="evenodd">
<path d="M 207.3488 475.1751 C 207.8718 472.5252 209.7812 470.9507 213.0770 470.4514 C 221.2016 469.2207 229.3263 467.9899 237.4509 466.7591 C 240.7467 466.2599 242.5427 467.5146 242.8392 470.5234 C 243.1356 473.5322 243.4320 476.5410 243.7285 479.5497 C 244.0249 482.5585 243.0630 485.3061 240.8428 487.7924 C 235.4476 493.8341 230.0524 499.8758 224.6572 505.9176 C 222.4369 508.4039 219.7408 509.1348 216.5688 508.1104 C 213.0447 506.9723 209.5205 505.8341 205.9964 504.6960 C 202.8244 503.6716 201.5514 501.8210 202.1775 499.1443 C 202.8037 496.4677 203.4298 493.7910 204.0559 491.1143 C 204.6821 488.4376 205.2566 485.7744 205.7797 483.1245 C 206.3027 480.4747 206.8258 477.8249 207.3488 475.1751 Z"/>
<path d="M 323.8461 467.8142 C 325.2820 465.5672 327.0510 463.6231 329.1529 461.9821 C 334.0510 458.1580 338.9490 454.3339 343.8471 450.5098 C 345.9490 448.8687 347.0914 449.3784 347.2743 452.0388 C 347.4947 455.2434 347.7150 458.4481 347.9353 461.6527 C 348.1182 464.3131 348.6521 466.9011 349.5370 469.4166 C 352.6969 478.3992 355.8568 487.3819 359.0167 496.3645 C 359.9016 498.8800 359.0181 500.2781 356.3663 500.5588 C 345.0372 501.7576 333.7081 502.9565 322.3790 504.1554 C 319.7272 504.4360 317.4689 503.6818 315.6043 501.8928 C 313.7396 500.1038 311.8750 498.3148 310.0103 496.5258 C 308.1457 494.7368 307.9313 492.7188 309.3673 490.4717 C 314.1935 482.9192 319.0198 475.3667 323.8461 467.8142 Z"/>
<path d="M 159.6693 500.7707 C 158.9960 498.8875 159.5388 498.4217 161.2979 499.3733 C 163.8852 500.7731 166.4724 502.1728 169.0597 503.5725 C 170.8188 504.5242 172.6276 505.3694 174.4862 506.1082 C 177.0220 507.1162 179.5579 508.1242 182.0938 509.1322 C 183.9524 509.8710 184.0306 510.7655 182.3286 511.8158 C 178.0701 514.4435 173.8116 517.0712 169.5531 519.6989 C 167.8510 520.7492 166.6633 520.3327 165.9900 518.4494 C 163.8831 512.5565 161.7762 506.6636 159.6693 500.7707 Z"/>
<path d="M 130.0529 511.1981 C 131.6848 508.2916 133.6242 506.4420 135.8711 505.6493 C 138.1181 504.8567 140.3650 504.0641 142.6120 503.2714 C 144.8589 502.4788 146.8871 503.4822 148.6965 506.2817 C 153.8669 514.2813 159.0374 522.2809 164.2078 530.2804 C 166.0172 533.0799 165.5228 535.3853 162.7246 537.1967 C 157.2912 540.7138 151.8577 544.2309 146.4243 547.7480 C 143.6261 549.5594 141.6026 552.0103 140.3539 555.1009 C 137.6249 561.8553 134.8958 568.6097 132.1668 575.3641 C 130.9181 578.4547 128.8600 579.1502 125.9924 577.4507 C 119.0954 573.3631 112.1984 569.2754 105.3013 565.1877 C 102.4338 563.4882 101.7928 561.2520 103.3784 558.4789 C 104.9640 555.7058 106.5497 552.9327 108.1353 550.1596 C 109.7209 547.3865 111.3296 544.5467 112.9615 541.6402 C 118.6586 531.4928 124.3558 521.3455 130.0529 511.1981 Z"/>
<path d="M 79.8992 568.5474 C 81.2850 565.5158 83.4895 564.2500 86.5127 564.7500 C 89.5360 565.2500 92.5592 565.7500 95.5824 566.2500 C 98.6056 566.7500 101.2741 568.1998 103.5878 570.5993 C 109.8476 577.0912 116.1074 583.5831 122.3672 590.0750 C 124.6810 592.4745 126.7589 595.0634 128.6009 597.8415 C 131.7112 602.5325 134.8214 607.2235 137.9317 611.9145 C 139.7737 614.6927 139.7886 617.4806 137.9762 620.2781 C 136.1352 623.1200 134.2942 625.9618 132.4532 628.8036 C 130.6408 631.6012 128.3818 632.0265 125.6763 630.0794 C 118.0482 624.5899 110.4201 619.1005 102.7921 613.6110 C 100.0865 611.6639 97.3842 609.7124 94.6850 607.7565 C 87.8446 602.7995 81.0042 597.8426 74.1638 592.8856 C 71.4646 590.9297 70.8079 588.4359 72.1937 585.4043 C 74.7622 579.7853 77.3307 574.1664 79.8992 568.5474 Z"/>
<path d="M 112.9982 629.7230 C 112.0231 627.2410 112.7948 626.4385 115.3131 627.3155 C 118.5379 628.4385 121.7627 629.5615 124.9875 630.6845 C 127.5058 631.5615 129.3679 632.6686 130.5738 634.0057 C 131.7796 635.3428 132.9854 636.6800 134.1913 638.0171 C 135.3971 639.3542 135.3586 641.1917 134.0758 643.5295 C 132.6919 646.0515 131.3081 648.5735 129.9242 651.0954 C 128.6414 653.4333 127.4167 654.2263 126.2500 653.4744 C 125.0833 652.7226 123.9167 651.9707 122.7500 651.2189 C 121.5833 650.4670 120.5125 648.8501 119.5374 646.3681 C 117.3577 640.8197 115.1779 635.2714 112.9982 629.7230 Z"/>
<path d="M 145.6899 629.0825 C 148.0277 628.0068 150.8485 627.2476 154.1523 626.8048 C 158.1163 626.2735 162.0803 625.7422 166.0443 625.2109 C 169.3481 624.7681 172.6388 624.2431 175.9164 623.6360 C 182.2007 622.4718 188.4850 621.3077 194.7693 620.1436 C 198.0469 619.5365 199.8835 620.8878 200.2790 624.1976 C 201.8059 636.9739 203.3327 649.7501 204.8595 662.5263 C 205.2551 665.8361 203.7913 667.6214 200.4682 667.8822 C 188.8879 668.7911 177.3075 669.6999 165.7272 670.6088 C 162.4041 670.8696 159.2620 670.2346 156.3010 668.7037 C 148.9688 664.9130 141.6365 661.1223 134.3043 657.3315 C 131.3432 655.8007 130.2691 653.4189 131.0817 650.1861 C 132.0381 646.3814 132.9945 642.5767 133.9509 638.7720 C 134.7636 635.5393 136.3388 633.3851 138.6766 632.3094 C 141.0144 631.2338 143.3521 630.1581 145.6899 629.0825 Z"/>
<path d="M 251.4789 592.0006 C 252.1283 588.0536 253.8350 584.6345 256.5992 581.7432 C 261.5881 576.5248 266.5769 571.3064 271.5658 566.0880 C 274.3299 563.1967 277.3240 562.9349 280.5480 565.3025 C 287.9361 570.7281 295.3242 576.1537 302.7123 581.5794 C 305.9364 583.9470 309.1443 586.3362 312.3362 588.7469 C 316.5044 591.8951 320.6727 595.0432 324.8409 598.1914 C 328.0328 600.6021 328.7656 603.6117 327.0393 607.2200 C 321.4986 618.8016 315.9578 630.3833 310.4170 641.9649 C 308.6908 645.5732 306.0471 648.2882 302.4859 650.1098 C 290.5234 656.2289 278.5609 662.3480 266.5984 668.4670 C 263.0372 670.2886 260.3106 669.4374 258.4185 665.9132 C 254.4911 658.5981 250.5637 651.2830 246.6364 643.9679 C 244.7443 640.4437 244.1229 636.7081 244.7723 632.7612 C 247.0078 619.1743 249.2433 605.5875 251.4789 592.0006 Z"/>
<path d="M 180.2726 681.9756 C 180.6015 678.6585 182.3948 677.3528 185.6526 678.0583 C 200.1395 681.1958 214.6264 684.3332 229.1133 687.4707 C 232.3711 688.1762 235.1572 689.7285 237.4716 692.1274 C 241.4188 696.2188 245.3661 700.3102 249.3134 704.4016 C 251.6278 706.8005 251.3238 708.8017 248.4014 710.4051 C 242.3955 713.7004 236.3895 716.9956 230.3835 720.2909 C 227.4612 721.8943 224.3437 722.5104 221.0311 722.1391 C 207.9378 720.6719 194.8444 719.2046 181.7511 717.7374 C 178.4385 717.3661 176.9466 715.5220 177.2755 712.2049 C 178.2745 702.1285 179.2736 692.0520 180.2726 681.9756 Z"/>
<path d="M 303.6872 696.0705 C 303.8957 694.4015 305.3333 693.5729 308.0000 693.5847 C 319.6719 693.6365 331.3439 693.6883 343.0158 693.7401 C 345.6824 693.7519 346.6689 695.0453 345.9753 697.6202 C 344.5064 703.0731 343.0375 708.5259 341.5686 713.9788 C 340.8750 716.5537 339.2320 717.5287 336.6396 716.9039 C 332.3893 715.8795 328.1390 714.8552 323.8887 713.8308 C 321.2962 713.2060 318.8267 712.2602 316.4801 710.9935 C 313.0764 709.1561 309.6726 707.3186 306.2689 705.4812 C 303.9223 704.2145 302.8532 702.7466 303.0617 701.0776 C 303.2702 699.4086 303.4787 697.7396 303.6872 696.0705 Z"/>
<path d="M 71.5776 692.3030 C 70.6762 690.5177 71.0992 689.1387 72.8467 688.1660 C 81.8105 683.1764 90.7743 678.1868 99.7380 673.1972 C 101.4855 672.2245 102.9515 672.5439 104.1360 674.1554 C 105.9324 676.5996 107.7288 679.0438 109.5252 681.4879 C 110.7096 683.0995 110.8416 684.7930 109.9210 686.5685 C 103.4172 699.1125 96.9133 711.6564 90.4095 724.2004 C 89.4889 725.9759 88.5779 725.9710 87.6764 724.1857 C 82.3102 713.5582 76.9439 702.9306 71.5776 692.3030 Z"/>
<path d="M 238.6043 662.4947 C 238.9906 661.2186 239.4536 661.1902 239.9931 662.4095 C 240.9904 664.6633 241.9878 666.9172 242.9851 669.1711 C 243.5246 670.3904 243.9616 671.6454 244.2960 672.9361 C 244.6411 674.2683 244.9862 675.6005 245.3313 676.9328 C 245.6657 678.2235 245.1662 678.8701 243.8329 678.8726 C 241.1020 678.8776 238.3711 678.8827 235.6402 678.8878 C 234.3068 678.8903 233.8333 678.2534 234.2197 676.9773 C 235.6812 672.1498 237.1427 667.3223 238.6043 662.4947 Z"/>
<g transform="translate(448 598)">
<path d="M 0.1706 -137.9539 L 8.8723 -119.7462 L 46.1380 -141.4026 L 63.4596 -101.9351 L 81.2253 -111.5068 L 77.5629 -91.6617 L 120.4408 -87.2779 L 111.2558 -45.1666 L 131.2547 -42.4678 L 116.6271 -28.5655 L 148.7393 0.1840 L 116.5561 28.8540 L 131.1493 42.7924 L 111.1437 45.4417 L 120.2245 87.5756 L 77.3359 91.8533 L 80.9492 111.7074 L 63.2072 102.0918 L 45.7880 141.5164 L 8.5761 119.7678 L -0.1706 137.9539 L -8.8723 119.7462 L -46.1380 141.4026 L -63.4596 101.9351 L -81.2253 111.5068 L -77.5629 91.6617 L -120.4408 87.2779 L -111.2558 45.1666 L -131.2547 42.4678 L -116.6271 28.5655 L -148.7393 -0.1840 L -116.5561 -28.8540 L -131.1493 -42.7924 L -111.1437 -45.4417 L -120.2245 -87.5756 L -77.3359 -91.8533 L -80.9492 -111.7074 L -63.2072 -102.0918 L -45.7880 -141.5164 L -8.5761 -119.7678 Z M 105 0 A 105 105 0 1 0 -105 0 A 105 105 0 1 0 105 0 Z"/>
<path d="M 8.3677 -104.6660 A 105 105 0 0 1 54.9731 -89.4593 L 31.1514 -50.6936 A 59.5 59.5 0 0 0 4.7417 -59.3108 Z M 16.4698 -90.2809 C 19.1432 -88.5441 21.8166 -86.8073 24.4900 -85.0705 C 26.3660 -87.8314 28.2420 -90.5923 30.1180 -93.3532 C 30.0949 -90.0749 30.0718 -86.7965 30.0487 -83.5181 C 33.2759 -83.3101 36.5031 -83.1021 39.7303 -82.8940 C 36.7586 -81.5379 33.7868 -80.1817 30.8151 -78.8255 C 32.1048 -75.8750 33.3945 -72.9246 34.6842 -69.9741 C 32.0818 -71.5309 29.4794 -73.0876 26.8770 -74.6444 C 25.0820 -72.0519 23.2870 -69.4595 21.4920 -66.8671 C 21.5667 -69.9972 21.6413 -73.1274 21.7159 -76.2575 C 18.5854 -76.5336 15.4549 -76.8096 12.3243 -77.0857 C 15.0622 -78.5694 17.8000 -80.0531 20.5379 -81.5368 C 19.1819 -84.4515 17.8259 -87.3662 16.4698 -90.2809 Z"/>
<path d="M 68.2908 -79.7582 A 105 105 0 0 1 97.0570 -40.0617 L 54.9990 -22.7016 A 59.5 59.5 0 0 0 38.6981 -45.1963 Z M 66.3902 -63.3581 C 67.5321 -60.3816 68.6741 -57.4051 69.8160 -54.4287 C 72.9565 -55.5596 76.0971 -56.6905 79.2376 -57.8214 C 77.2919 -55.1828 75.3463 -52.5441 73.4006 -49.9054 C 75.8892 -47.8402 78.3778 -45.7750 80.8664 -43.7098 C 77.6651 -44.3594 74.4637 -45.0089 71.2624 -45.6585 C 70.5716 -42.5135 69.8807 -39.3684 69.1899 -36.2234 C 67.9995 -39.0125 66.8092 -41.8016 65.6188 -44.5907 C 62.6428 -43.5484 59.6669 -42.5062 56.6909 -41.4639 C 58.5911 -43.9524 60.4914 -46.4408 62.3916 -48.9293 C 60.0212 -50.9927 57.6508 -53.0561 55.2804 -55.1196 C 58.3675 -54.7106 61.4546 -54.3017 64.5416 -53.8928 C 65.1578 -57.0479 65.7740 -60.2030 66.3902 -63.3581 Z"/>
<path d="M 102.1291 -24.3854 A 105 105 0 0 1 102.0684 24.6380 L 57.8388 13.9616 A 59.5 59.5 0 0 0 57.8731 -13.8184 Z M 90.9517 -12.2346 C 90.1261 -9.1554 89.3004 -6.0761 88.4747 -2.9969 C 91.6802 -2.0659 94.8857 -1.1348 98.0912 -0.2038 C 94.9661 0.7873 91.8410 1.7784 88.7160 2.7695 C 89.5154 5.9030 90.3148 9.0366 91.1143 12.1701 C 88.9061 9.7629 86.6980 7.3557 84.4899 4.9485 C 82.0824 7.0868 79.6749 9.2251 77.2674 11.3635 C 77.9438 8.4074 78.6201 5.4512 79.2965 2.4951 C 76.2762 1.5891 73.2560 0.6831 70.2358 -0.2229 C 73.2358 -1.1192 76.2358 -2.0155 79.2358 -2.9118 C 78.5309 -5.9744 77.8261 -9.0370 77.1212 -12.0997 C 79.3784 -9.9543 81.6355 -7.8089 83.8927 -5.6636 C 86.2457 -7.8539 88.5987 -10.0443 90.9517 -12.2346 Z"/>
<path d="M 96.9576 40.3017 A 105 105 0 0 1 68.0932 79.9269 L 38.5862 45.2919 A 59.5 59.5 0 0 0 54.9426 22.8376 Z M 80.7728 43.5621 C 78.2949 45.5679 75.8170 47.5737 73.3391 49.5796 C 75.3851 52.2169 77.4312 54.8543 79.4772 57.4917 C 76.3664 56.4566 73.2557 55.4216 70.1449 54.3865 C 68.9498 57.3915 67.7547 60.3965 66.5596 63.4014 C 66.1881 60.1561 65.8166 56.9107 65.4451 53.6653 C 62.2405 53.9802 59.0359 54.2950 55.8313 54.6099 C 58.1161 52.6159 60.4008 50.6219 62.6856 48.6279 C 60.7747 46.1197 58.8638 43.6114 56.9529 41.1032 C 59.9068 42.1414 62.8607 43.1797 65.8146 44.2180 C 67.0445 41.3259 68.2745 38.4339 69.5044 35.5419 C 70.0695 38.6043 70.6345 41.6666 71.1996 44.7290 C 74.3906 44.3400 77.5817 43.9510 80.7728 43.5621 Z"/>
<path d="M 54.7516 89.5950 A 105 105 0 0 1 8.1087 104.6864 L 4.5949 59.3223 A 59.5 59.5 0 0 0 31.0259 50.7705 Z M 39.7414 82.7195 C 36.5578 82.8858 33.3741 83.0521 30.1904 83.2183 C 30.2955 86.5546 30.4006 89.8910 30.5057 93.2273 C 28.5974 90.5614 26.6891 87.8956 24.7808 85.2297 C 22.0477 86.9583 19.3145 88.6870 16.5814 90.4156 C 18.1884 87.5717 19.7955 84.7277 21.4025 81.8838 C 18.6249 80.2549 15.8473 78.6260 13.0696 76.9972 C 16.0901 76.7269 19.1105 76.4567 22.1309 76.1865 C 22.0593 73.0341 21.9877 69.8817 21.9161 66.7293 C 23.6955 69.3055 25.4750 71.8817 27.2545 74.4579 C 29.9494 72.8412 32.6443 71.2244 35.3392 69.6077 C 33.9964 72.4173 32.6535 75.2269 31.3106 78.0365 C 34.1209 79.5975 36.9312 81.1585 39.7414 82.7195 Z"/>
<path d="M -8.3677 104.6660 A 105 105 0 0 1 -54.9731 89.4593 L -31.1514 50.6936 A 59.5 59.5 0 0 0 -4.7417 59.3108 Z M -16.4698 90.2809 C -19.1432 88.5441 -21.8166 86.8073 -24.4900 85.0705 C -26.3660 87.8314 -28.2420 90.5923 -30.1180 93.3532 C -30.0949 90.0749 -30.0718 86.7965 -30.0487 83.5181 C -33.2759 83.3101 -36.5031 83.1021 -39.7303 82.8940 C -36.7586 81.5379 -33.7868 80.1817 -30.8151 78.8255 C -32.1048 75.8750 -33.3945 72.9246 -34.6842 69.9741 C -32.0818 71.5309 -29.4794 73.0876 -26.8770 74.6444 C -25.0820 72.0519 -23.2870 69.4595 -21.4920 66.8671 C -21.5667 69.9972 -21.6413 73.1274 -21.7159 76.2575 C -18.5854 76.5336 -15.4549 76.8096 -12.3243 77.0857 C -15.0622 78.5694 -17.8000 80.0531 -20.5379 81.5368 C -19.1819 84.4515 -17.8259 87.3662 -16.4698 90.2809 Z"/>
<path d="M -68.2908 79.7582 A 105 105 0 0 1 -97.0570 40.0617 L -54.9990 22.7016 A 59.5 59.5 0 0 0 -38.6981 45.1963 Z M -66.3902 63.3581 C -67.5321 60.3816 -68.6741 57.4051 -69.8160 54.4287 C -72.9565 55.5596 -76.0971 56.6905 -79.2376 57.8214 C -77.2919 55.1828 -75.3463 52.5441 -73.4006 49.9054 C -75.8892 47.8402 -78.3778 45.7750 -80.8664 43.7098 C -77.6651 44.3594 -74.4637 45.0089 -71.2624 45.6585 C -70.5716 42.5135 -69.8807 39.3684 -69.1899 36.2234 C -67.9995 39.0125 -66.8092 41.8016 -65.6188 44.5907 C -62.6428 43.5484 -59.6669 42.5062 -56.6909 41.4639 C -58.5911 43.9524 -60.4914 46.4408 -62.3916 48.9293 C -60.0212 50.9927 -57.6508 53.0561 -55.2804 55.1196 C -58.3675 54.7106 -61.4546 54.3017 -64.5416 53.8928 C -65.1578 57.0479 -65.7740 60.2030 -66.3902 63.3581 Z"/>
<path d="M -102.1291 24.3854 A 105 105 0 0 1 -102.0684 -24.6380 L -57.8388 -13.9616 A 59.5 59.5 0 0 0 -57.8731 13.8184 Z M -90.9517 12.2346 C -90.1261 9.1554 -89.3004 6.0761 -88.4747 2.9969 C -91.6802 2.0659 -94.8857 1.1348 -98.0912 0.2038 C -94.9661 -0.7873 -91.8410 -1.7784 -88.7160 -2.7695 C -89.5154 -5.9030 -90.3148 -9.0366 -91.1143 -12.1701 C -88.9061 -9.7629 -86.6980 -7.3557 -84.4899 -4.9485 C -82.0824 -7.0868 -79.6749 -9.2251 -77.2674 -11.3635 C -77.9438 -8.4074 -78.6201 -5.4512 -79.2965 -2.4951 C -76.2762 -1.5891 -73.2560 -0.6831 -70.2358 0.2229 C -73.2358 1.1192 -76.2358 2.0155 -79.2358 2.9118 C -78.5309 5.9744 -77.8261 9.0370 -77.1212 12.0997 C -79.3784 9.9543 -81.6355 7.8089 -83.8927 5.6636 C -86.2457 7.8539 -88.5987 10.0443 -90.9517 12.2346 Z"/>
<path d="M -96.9576 -40.3017 A 105 105 0 0 1 -68.0932 -79.9269 L -38.5862 -45.2919 A 59.5 59.5 0 0 0 -54.9426 -22.8376 Z M -80.7728 -43.5621 C -78.2949 -45.5679 -75.8170 -47.5737 -73.3391 -49.5796 C -75.3851 -52.2169 -77.4312 -54.8543 -79.4772 -57.4917 C -76.3664 -56.4566 -73.2557 -55.4216 -70.1449 -54.3865 C -68.9498 -57.3915 -67.7547 -60.3965 -66.5596 -63.4014 C -66.1881 -60.1561 -65.8166 -56.9107 -65.4451 -53.6653 C -62.2405 -53.9802 -59.0359 -54.2950 -55.8313 -54.6099 C -58.1161 -52.6159 -60.4008 -50.6219 -62.6856 -48.6279 C -60.7747 -46.1197 -58.8638 -43.6114 -56.9529 -41.1032 C -59.9068 -42.1414 -62.8607 -43.1797 -65.8146 -44.2180 C -67.0445 -41.3259 -68.2745 -38.4339 -69.5044 -35.5419 C -70.0695 -38.6043 -70.6345 -41.6666 -71.1996 -44.7290 C -74.3906 -44.3400 -77.5817 -43.9510 -80.7728 -43.5621 Z"/>
<path d="M -54.7516 -89.5950 A 105 105 0 0 1 -8.1087 -104.6864 L -4.5949 -59.3223 A 59.5 59.5 0 0 0 -31.0259 -50.7705 Z M -39.7414 -82.7195 C -36.5578 -82.8858 -33.3741 -83.0521 -30.1904 -83.2183 C -30.2955 -86.5546 -30.4006 -89.8910 -30.5057 -93.2273 C -28.5974 -90.5614 -26.6891 -87.8956 -24.7808 -85.2297 C -22.0477 -86.9583 -19.3145 -88.6870 -16.5814 -90.4156 C -18.1884 -87.5717 -19.7955 -84.7277 -21.4025 -81.8838 C -18.6249 -80.2549 -15.8473 -78.6260 -13.0696 -76.9972 C -16.0901 -76.7269 -19.1105 -76.4567 -22.1309 -76.1865 C -22.0593 -73.0341 -21.9877 -69.8817 -21.9161 -66.7293 C -23.6955 -69.3055 -25.4750 -71.8817 -27.2545 -74.4579 C -29.9494 -72.8412 -32.6443 -71.2244 -35.3392 -69.6077 C -33.9964 -72.4173 -32.6535 -75.2269 -31.3106 -78.0365 C -34.1209 -79.5975 -36.9312 -81.1585 -39.7414 -82.7195 Z"/>
</g>
<g transform="translate(403.52830 552.41646) scale(1.001660)">
<path d="M 29.1820 10.2936 C 34.7445 17.1653 40.3070 24.0370 45.8695 30.9086 C 53.1834 25.2346 60.4973 19.5605 67.8111 13.8865 C 64.9407 22.5132 62.0704 31.1399 59.2000 39.7667 C 67.5333 43.0809 75.8667 46.3951 84.2000 49.7094 C 75.2000 50.7396 66.2000 51.7698 57.2000 52.8000 C 58.0731 61.6869 58.9463 70.5737 59.8194 79.4606 C 54.2898 73.1246 48.7601 66.7886 43.2304 60.4526 C 36.2746 65.7518 29.3188 71.0510 22.3631 76.3502 C 25.2423 68.1586 28.1216 59.9669 31.0008 51.7753 C 22.9808 48.3645 14.9607 44.9537 6.9406 41.5429 C 15.4331 39.9759 23.9255 38.4089 32.4179 36.8419 C 31.3393 27.9924 30.2607 19.1430 29.1820 10.2936 Z"/>
</g>
<ellipse cx="292" cy="733" rx="7" ry="9" transform="rotate(-25 292 733)"/>
</g></svg>
