<svg xmlns="http://www.w3.org/2000/svg" width="1024" height="1600" viewBox="0 0 1024 1600"><defs><linearGradient id="ground" x2="1" y2="1"><stop stop-color="#252d35"/><stop offset=".5" stop-color="#111b24"/><stop offset="1" stop-color="#09121b"/></linearGradient><linearGradient id="gold" x2="1" y2=".3"><stop stop-color="#ad9062"/><stop offset=".5" stop-color="#ddd3ab"/><stop offset="1" stop-color="#82775c"/></linearGradient></defs><path fill="url(#ground)" d="M0 0h1024v1600H0z"/><path fill="#7c858a" d="M0 0h1024v90H0zM0 1510h1024v90H0z"/><path fill="#38424c" d="M0 0h34v1600H0zM990 0h34v1600h-34z"/><g fill="#c5baa1" font-family="Arial,sans-serif" text-anchor="middle"><text x="512" y="310" font-size="22" letter-spacing="12">HOLO / ARCHIVE</text><text x="512" y="1190" font-size="15" letter-spacing="4">A STUDY IN LIGHT &amp; MATERIAL</text><text x="512" y="1240" font-size="12" letter-spacing="2">CURATED IN THE STUDIO · COLLECTION 01</text><text x="512" y="1370" font-size="12" letter-spacing="4">HOLO — VOLUME 01 — FIVE CARDS</text></g><g fill="none" stroke="#6e756f" opacity=".55"><circle cx="512" cy="730" r="160"/><path d="M512 535v390M317 730h390M370 588l284 284m0-284L370 872"/></g><path d="M481 90h62v1420h-62z" fill="#39444c" opacity=".75"/><path d="M350.0 1010v64" stroke="#a2a39b" stroke-width="1"/><path d="M354.6 1010v64" stroke="#a2a39b" stroke-width="2"/><path d="M359.2 1010v64" stroke="#a2a39b" stroke-width="3"/><path d="M363.8 1010v64" stroke="#a2a39b" stroke-width="1"/><path d="M368.4 1010v64" stroke="#a2a39b" stroke-width="2"/><path d="M373.0 1010v64" stroke="#a2a39b" stroke-width="3"/><path d="M377.6 1010v64" stroke="#a2a39b" stroke-width="1"/><path d="M382.2 1010v64" stroke="#a2a39b" stroke-width="2"/><path d="M386.8 1010v64" stroke="#a2a39b" stroke-width="3"/><path d="M391.4 1010v64" stroke="#a2a39b" stroke-width="1"/><path d="M396.0 1010v64" stroke="#a2a39b" stroke-width="2"/><path d="M400.6 1010v64" stroke="#a2a39b" stroke-width="3"/><path d="M405.2 1010v64" stroke="#a2a39b" stroke-width="1"/><path d="M409.8 1010v64" stroke="#a2a39b" stroke-width="2"/><path d="M414.4 1010v64" stroke="#a2a39b" stroke-width="3"/><path d="M419.0 1010v64" stroke="#a2a39b" stroke-width="1"/><path d="M423.6 1010v64" stroke="#a2a39b" stroke-width="2"/><path d="M428.2 1010v64" stroke="#a2a39b" stroke-width="3"/><path d="M432.8 1010v64" stroke="#a2a39b" stroke-width="1"/><path d="M437.4 1010v64" stroke="#a2a39b" stroke-width="2"/><path d="M442.0 1010v64" stroke="#a2a39b" stroke-width="3"/><path d="M446.6 1010v64" stroke="#a2a39b" stroke-width="1"/><path d="M451.2 1010v64" stroke="#a2a39b" stroke-width="2"/><path d="M455.8 1010v64" stroke="#a2a39b" stroke-width="3"/><path d="M460.4 1010v64" stroke="#a2a39b" stroke-width="1"/><path d="M465.0 1010v64" stroke="#a2a39b" stroke-width="2"/><path d="M469.6 1010v64" stroke="#a2a39b" stroke-width="3"/><path d="M474.2 1010v64" stroke="#a2a39b" stroke-width="1"/><path d="M478.79999999999995 1010v64" stroke="#a2a39b" stroke-width="2"/><path d="M483.4 1010v64" stroke="#a2a39b" stroke-width="3"/><path d="M488.0 1010v64" stroke="#a2a39b" stroke-width="1"/><path d="M492.6 1010v64" stroke="#a2a39b" stroke-width="2"/><path d="M497.2 1010v64" stroke="#a2a39b" stroke-width="3"/><path d="M501.79999999999995 1010v64" stroke="#a2a39b" stroke-width="1"/><path d="M506.4 1010v64" stroke="#a2a39b" stroke-width="2"/><path d="M511.0 1010v64" stroke="#a2a39b" stroke-width="3"/><path d="M515.6 1010v64" stroke="#a2a39b" stroke-width="1"/><path d="M520.2 1010v64" stroke="#a2a39b" stroke-width="2"/><path d="M524.8 1010v64" stroke="#a2a39b" stroke-width="3"/><path d="M529.4 1010v64" stroke="#a2a39b" stroke-width="1"/><path d="M534.0 1010v64" stroke="#a2a39b" stroke-width="2"/><path d="M538.6 1010v64" stroke="#a2a39b" stroke-width="3"/><path d="M543.2 1010v64" stroke="#a2a39b" stroke-width="1"/><path d="M547.8 1010v64" stroke="#a2a39b" stroke-width="2"/><path d="M552.4 1010v64" stroke="#a2a39b" stroke-width="3"/><path d="M557.0 1010v64" stroke="#a2a39b" stroke-width="1"/><path d="M561.6 1010v64" stroke="#a2a39b" stroke-width="2"/><path d="M566.2 1010v64" stroke="#a2a39b" stroke-width="3"/><path d="M570.8 1010v64" stroke="#a2a39b" stroke-width="1"/><path d="M575.4 1010v64" stroke="#a2a39b" stroke-width="2"/><path d="M580.0 1010v64" stroke="#a2a39b" stroke-width="3"/><path d="M584.6 1010v64" stroke="#a2a39b" stroke-width="1"/><path d="M589.2 1010v64" stroke="#a2a39b" stroke-width="2"/><path d="M593.8 1010v64" stroke="#a2a39b" stroke-width="3"/><path d="M598.4 1010v64" stroke="#a2a39b" stroke-width="1"/><path d="M603.0 1010v64" stroke="#a2a39b" stroke-width="2"/><path d="M607.5999999999999 1010v64" stroke="#a2a39b" stroke-width="3"/><path d="M612.2 1010v64" stroke="#a2a39b" stroke-width="1"/><path d="M616.8 1010v64" stroke="#a2a39b" stroke-width="2"/><path d="M621.4 1010v64" stroke="#a2a39b" stroke-width="3"/><path d="M626.0 1010v64" stroke="#a2a39b" stroke-width="1"/><path d="M630.5999999999999 1010v64" stroke="#a2a39b" stroke-width="2"/><path d="M635.2 1010v64" stroke="#a2a39b" stroke-width="3"/><path d="M639.8 1010v64" stroke="#a2a39b" stroke-width="1"/><path d="M644.4 1010v64" stroke="#a2a39b" stroke-width="2"/><path d="M649.0 1010v64" stroke="#a2a39b" stroke-width="3"/><path d="M653.5999999999999 1010v64" stroke="#a2a39b" stroke-width="1"/><path d="M658.2 1010v64" stroke="#a2a39b" stroke-width="2"/><path d="M662.8 1010v64" stroke="#a2a39b" stroke-width="3"/><path d="M667.4 1010v64" stroke="#a2a39b" stroke-width="1"/></svg>