<svg xmlns="http://www.w3.org/2000/svg" width="1024" height="1600" viewBox="0 0 1024 1600"><defs><linearGradient id="ground" x2="1" y2="1"><stop stop-color="#252d35"/><stop offset=".5" stop-color="#111b24"/><stop offset="1" stop-color="#09121b"/></linearGradient><linearGradient id="gold" x2="1" y2=".3"><stop stop-color="#ad9062"/><stop offset=".5" stop-color="#ddd3ab"/><stop offset="1" stop-color="#82775c"/></linearGradient></defs><path fill="url(#ground)" d="M0 0h1024v1600H0z"/><path fill="#515c65" d="M0 0h1024v90H0zM0 1510h1024v90H0z"/><path fill="#38424c" d="M0 0h34v1600H0zM990 0h34v1600h-34z"/><g fill="none" stroke="#a29473" opacity=".6"><path d="M86 192v1230h852V192"/><path d="M96 203v1208h832V203" opacity=".28"/></g><g fill="#d5c8a5" text-anchor="middle" font-family="Arial,sans-serif"><text x="522" y="255" font-size="19" letter-spacing="19">H O L O</text><text x="512" y="386" font-family="Georgia,serif" font-size="78" letter-spacing="13">ARCHIVE</text><text x="515" y="432" font-size="13" letter-spacing="7">THE STUDIO COLLECTION</text></g><g fill="none" stroke="url(#gold)" stroke-width="1.05" opacity=".65"><ellipse cx="512" cy="790" rx="10.12" ry="330" transform="rotate(-38.0 512 790)"/><ellipse cx="512" cy="790" rx="96.46" ry="330" transform="rotate(-36.2 512 790)"/><ellipse cx="512" cy="790" rx="134.78" ry="330" transform="rotate(-34.5 512 790)"/><ellipse cx="512" cy="790" rx="163.04" ry="330" transform="rotate(-32.7 512 790)"/><ellipse cx="512" cy="790" rx="185.90" ry="330" transform="rotate(-30.9 512 790)"/><ellipse cx="512" cy="790" rx="205.16" ry="330" transform="rotate(-29.2 512 790)"/><ellipse cx="512" cy="790" rx="221.76" ry="330" transform="rotate(-27.4 512 790)"/><ellipse cx="512" cy="790" rx="236.27" ry="330" transform="rotate(-25.6 512 790)"/><ellipse cx="512" cy="790" rx="249.05" ry="330" transform="rotate(-23.9 512 790)"/><ellipse cx="512" cy="790" rx="260.36" ry="330" transform="rotate(-22.1 512 790)"/><ellipse cx="512" cy="790" rx="270.38" ry="330" transform="rotate(-20.3 512 790)"/><ellipse cx="512" cy="790" rx="279.24" ry="330" transform="rotate(-18.6 512 790)"/><ellipse cx="512" cy="790" rx="287.07" ry="330" transform="rotate(-16.8 512 790)"/><ellipse cx="512" cy="790" rx="293.93" ry="330" transform="rotate(-15.0 512 790)"/><ellipse cx="512" cy="790" rx="299.90" ry="330" transform="rotate(-13.3 512 790)"/><ellipse cx="512" cy="790" rx="305.03" ry="330" transform="rotate(-11.5 512 790)"/><ellipse cx="512" cy="790" rx="309.35" ry="330" transform="rotate(-9.7 512 790)"/><ellipse cx="512" cy="790" rx="312.91" ry="330" transform="rotate(-8.0 512 790)"/><ellipse cx="512" cy="790" rx="315.73" ry="330" transform="rotate(-6.2 512 790)"/><ellipse cx="512" cy="790" rx="317.83" ry="330" transform="rotate(-4.4 512 790)"/><ellipse cx="512" cy="790" rx="319.22" ry="330" transform="rotate(-2.7 512 790)"/><ellipse cx="512" cy="790" rx="319.91" ry="330" transform="rotate(-0.9 512 790)"/><ellipse cx="512" cy="790" rx="319.91" ry="330" transform="rotate(0.9 512 790)"/><ellipse cx="512" cy="790" rx="319.22" ry="330" transform="rotate(2.7 512 790)"/><ellipse cx="512" cy="790" rx="317.83" ry="330" transform="rotate(4.4 512 790)"/><ellipse cx="512" cy="790" rx="315.73" ry="330" transform="rotate(6.2 512 790)"/><ellipse cx="512" cy="790" rx="312.91" ry="330" transform="rotate(8.0 512 790)"/><ellipse cx="512" cy="790" rx="309.35" ry="330" transform="rotate(9.7 512 790)"/><ellipse cx="512" cy="790" rx="305.03" ry="330" transform="rotate(11.5 512 790)"/><ellipse cx="512" cy="790" rx="299.90" ry="330" transform="rotate(13.3 512 790)"/><ellipse cx="512" cy="790" rx="293.93" ry="330" transform="rotate(15.0 512 790)"/><ellipse cx="512" cy="790" rx="287.07" ry="330" transform="rotate(16.8 512 790)"/><ellipse cx="512" cy="790" rx="279.24" ry="330" transform="rotate(18.6 512 790)"/><ellipse cx="512" cy="790" rx="270.38" ry="330" transform="rotate(20.3 512 790)"/><ellipse cx="512" cy="790" rx="260.36" ry="330" transform="rotate(22.1 512 790)"/><ellipse cx="512" cy="790" rx="249.05" ry="330" transform="rotate(23.9 512 790)"/><ellipse cx="512" cy="790" rx="236.27" ry="330" transform="rotate(25.6 512 790)"/><ellipse cx="512" cy="790" rx="221.76" ry="330" transform="rotate(27.4 512 790)"/><ellipse cx="512" cy="790" rx="205.16" ry="330" transform="rotate(29.2 512 790)"/><ellipse cx="512" cy="790" rx="185.90" ry="330" transform="rotate(30.9 512 790)"/><ellipse cx="512" cy="790" rx="163.04" ry="330" transform="rotate(32.7 512 790)"/><ellipse cx="512" cy="790" rx="134.78" ry="330" transform="rotate(34.5 512 790)"/><ellipse cx="512" cy="790" rx="96.46" ry="330" transform="rotate(36.2 512 790)"/><ellipse cx="512" cy="790" rx="10.12" ry="330" transform="rotate(38.0 512 790)"/><ellipse cx="512" cy="500.00" rx="10.12" ry="2.00"/><ellipse cx="512" cy="532.22" rx="146.60" ry="10.40"/><ellipse cx="512" cy="564.44" rx="201.13" ry="17.80"/><ellipse cx="512" cy="596.67" rx="238.51" ry="24.22"/><ellipse cx="512" cy="628.89" rx="266.07" ry="29.65"/><ellipse cx="512" cy="661.11" rx="286.66" ry="34.10"/><ellipse cx="512" cy="693.33" rx="301.70" ry="37.56"/><ellipse cx="512" cy="725.56" rx="312.00" ry="40.02"/><ellipse cx="512" cy="757.78" rx="318.02" ry="41.51"/><ellipse cx="512" cy="790.00" rx="320.00" ry="42.00"/><ellipse cx="512" cy="822.22" rx="318.02" ry="41.51"/><ellipse cx="512" cy="854.44" rx="312.00" ry="40.02"/><ellipse cx="512" cy="886.67" rx="301.70" ry="37.56"/><ellipse cx="512" cy="918.89" rx="286.66" ry="34.10"/><ellipse cx="512" cy="951.11" rx="266.07" ry="29.65"/><ellipse cx="512" cy="983.33" rx="238.51" ry="24.22"/><ellipse cx="512" cy="1015.56" rx="201.13" ry="17.80"/><ellipse cx="512" cy="1047.78" rx="146.60" ry="10.40"/><ellipse cx="512" cy="1080.00" rx="10.12" ry="2.00"/></g><g fill="none" stroke="#d4c5a0"><path d="M512 499 756 790 512 1081 268 790Z" stroke-width="1.8"/><path d="m512 580 176 210-176 210-176-210Z" opacity=".4"/><circle cx="512" cy="790" r="59" stroke-width=".8"/><path d="M483 790h58m-29-29v58" opacity=".7"/></g><g fill="#d5c8a5" text-anchor="middle"><text x="516" y="1194" font-family="Georgia,serif" font-size="42" letter-spacing="10">VOLUME 01</text><text x="514" y="1242" font-family="Arial,sans-serif" font-size="12" letter-spacing="5">FIVE CARDS · ONE COLLECTION</text></g><path d="M393 1290h238" stroke="#766b53"/><g fill="#a9afb0" font-family="Arial,sans-serif" font-size="13" letter-spacing="3"><text x="130" y="1380">ED. 001</text><text x="895" y="1380" text-anchor="end">5 CARDS</text></g><path d="m55 135 13 8-13 8" fill="none" stroke="#d5c8a5" stroke-width="2"/><text x="82" y="148" fill="#aeb3b4" font-family="Arial,sans-serif" font-size="11" letter-spacing="3">TEAR TO DISCOVER</text></svg>