<svg xmlns="http://www.w3.org/2000/svg" viewBox="0 0 630 880">
<title>Metal printed reverse ink — full-card first pass</title>
<desc>Printed network only. Unvalidated full-card layout candidate; perimeter and body with explicitly documented text interpolation. Blank unknown regions are not proof of absent ink. One selected reference: varoom. First-pass reconstruction; see companion JSON.</desc>
<defs><clipPath id="metal-observed"><rect x="25" y="25" width="580" height="59"/><rect x="25" y="84" width="18" height="359"/><rect x="586" y="84" width="19" height="359"/><rect x="25" y="443" width="580" height="412"/></clipPath>
<mask id="metal-network" maskUnits="userSpaceOnUse" x="0" y="0" width="630" height="880">
<rect width="630" height="880" fill="white"/>
<g fill="black" fill-rule="evenodd">
<g transform="translate(446.35200 596.26100) scale(1.0004476) translate(-448 -598)">
<path d="M 39 459 C 43 455 52 457 57 461 C 64 467 59 473 53 477 L 35 488 L 30 476 Z"/>
<path d="M 81 436 L 135 436 C 136 447 126 457 116 464 L 102 466 L 90 475 C 85 473 79 467 78 460 Z"/>
<path d="M 72 492 C 79 486 85 482 90 480 L 96 515 C 91 520 79 529 73 533 C 68 533 63 528 63 523 L 61 513 C 61 506 67 497 72 492 Z"/>
<path d="M 119 487 C 128 490 135 500 145 501 L 166 500 C 170 500 172 506 171 511 C 164 515 143 521 129 524 L 122 523 Z"/>
<path d="M 127 532 C 142 529 151 523 162 521 C 166 526 170 540 168 547 C 166 552 146 557 135 563 C 129 566 122 562 116 557 L 106 550 C 101 544 107 540 115 537 Z"/>
<path d="M 207 433 L 236 433 C 235 445 224 450 218 461 L 214 480 C 211 487 202 490 196 485 C 191 482 194 469 196 459 Z"/>
<path d="M 239 483 L 248 479 L 252 487 L 267 491 C 264 499 254 502 246 500 L 234 496 Z"/>
<path d="M 232 503 C 238 500 248 504 247 510 C 246 519 240 523 239 531 C 235 535 227 535 226 529 L 225 516 C 225 510 226 506 232 503 Z"/>
<path d="M 275 501 C 278 498 285 502 291 505 L 312 513 C 316 521 319 534 316 537 L 293 540 C 289 530 282 524 268 527 C 267 518 270 506 275 501 Z"/>
<path d="M 313 433 L 353 434 L 356 458 C 348 467 325 466 317 459 Z"/>
<path d="M 304 475 C 314 474 335 470 344 472 C 348 480 355 489 357 497 C 346 501 315 505 308 500 C 302 494 301 482 304 475 Z"/>
<path d="M 30 503 C 44 508 60 509 68 516 L 64 540 L 52 550 L 39 556 L 30 553 Z"/>
<path d="M 46 563 C 50 561 59 566 64 572 L 63 584 L 45 592 C 42 583 41 570 46 563 Z"/>
<path d="M 78 584 C 83 582 94 585 98 592 C 103 601 105 610 115 613 L 126 608 L 133 610 C 132 617 120 626 112 629 C 106 628 100 620 91 617 C 84 614 80 614 76 607 L 67 592 Z"/>
<path d="M 52 595 C 59 597 63 603 64 609 L 61 620 C 57 623 52 619 50 615 L 44 605 Z"/>
<path d="M 71 628 C 76 626 79 630 74 636 L 64 649 C 60 652 55 649 59 644 Z"/>
<path d="M 83 644 C 87 642 94 647 93 654 C 98 658 100 656 104 654 L 110 661 C 103 670 90 681 80 689 C 76 692 71 691 71 686 C 73 673 76 655 83 644 Z"/>
<path d="M 135 636 C 144 630 151 628 158 631 C 165 632 168 641 175 644 C 185 649 196 653 199 662 C 203 670 204 679 198 684 C 189 692 181 689 170 685 C 155 679 143 678 131 676 C 123 675 126 655 128 646 Z"/>
<path d="M 216 617 L 232 610 L 246 592 C 251 590 265 599 276 607 C 284 613 296 621 297 627 L 281 645 C 273 650 262 653 257 660 L 247 677 C 241 686 227 690 218 686 C 212 683 211 674 209 663 L 207 639 C 207 628 210 621 216 617 Z"/>
<path d="M 284 665 C 289 662 294 662 296 667 L 298 675 C 300 679 296 681 290 679 L 281 676 C 280 672 281 668 284 665 Z"/>
<path d="M 327 694 C 335 690 350 693 357 697 C 357 704 354 713 350 716 C 340 717 328 712 326 706 C 323 702 324 697 327 694 Z"/>
<path d="M 292 740 C 293 734 297 737 301 740 L 307 747 L 288 747 Z"/>
<path d="M 578 436 L 605 436 L 600 461 C 594 467 584 468 578 465 L 575 459 Z"/>
<path d="M 582 570 C 586 566 597 570 608 575 L 611 630 C 602 630 594 620 587 611 L 577 598 C 569 588 577 576 582 570 Z"/>
<path d="M 577 653 C 584 654 593 658 596 665 L 599 717 C 592 714 584 703 578 691 C 573 681 571 661 577 653 Z"/>
<path d="M 554 723 C 565 725 587 734 604 744 L 602 751 L 545 751 Z"/>
<path d="M 528 718 C 532 716 539 719 542 723 L 529 742 L 517 750 L 511 748 L 516 731 Z"/>
<path d="M 427 726 L 435 746 L 439 752 L 407 752 C 411 740 417 731 427 726 Z"/>
<path d="M 165.6252 431.6277 C 173.0232 434.2638 180.4211 436.8999 187.8191 439.5360 C 181.7130 444.7832 175.6069 450.0304 169.5008 455.2776 C 168.2089 447.3943 166.9171 439.5110 165.6252 431.6277 Z M 161.2012 438.4917 C 158.8754 438.0163 156.5496 437.5409 154.2237 437.0654 C 153.6280 434.0674 153.0324 431.0694 152.4367 428.0714 C 156.2859 424.9727 160.1351 421.8739 163.9843 418.7751 C 166.5284 419.6852 169.0724 420.5954 171.6165 421.5055 C 172.1469 423.6815 172.6774 425.8575 173.2079 428.0335 C 170.6245 427.1870 168.0411 426.3406 165.4577 425.4942 C 163.1674 427.4236 160.8771 429.3531 158.5868 431.2826 C 159.4583 433.6857 160.3297 436.0887 161.2012 438.4917 Z M 184.0817 432.1036 C 185.9072 430.8618 187.7326 429.6199 189.5581 428.3781 C 192.0235 429.2739 194.4890 430.1697 196.9544 431.0656 C 197.8631 435.7516 198.7718 440.4377 199.6805 445.1237 C 197.7370 447.0877 195.7935 449.0516 193.8500 451.0156 C 191.4970 450.3202 189.1439 449.6249 186.7909 448.9295 C 188.9932 447.1107 191.1956 445.2919 193.3979 443.4731 C 192.9857 440.7185 192.5734 437.9638 192.1611 435.2091 C 189.4680 434.1739 186.7749 433.1388 184.0817 432.1036 Z M 177.2898 455.4598 C 178.0028 457.6818 178.7158 459.9038 179.4288 462.1258 C 177.2579 464.1306 175.0870 466.1354 172.9161 468.1401 C 168.2216 466.4208 163.5271 464.7014 158.8327 462.9821 C 158.2999 460.3042 157.7670 457.6262 157.2342 454.9483 C 158.9335 453.2365 160.6327 451.5247 162.3319 449.8129 C 162.7156 452.2258 163.0992 454.6387 163.4829 457.0516 C 166.6574 458.3180 169.8319 459.5843 173.0064 460.8507 C 174.4342 459.0538 175.8620 457.2568 177.2898 455.4598 Z"/>
<path d="M 578.8528 473.3747 C 575.9397 479.7338 573.0266 486.0929 570.1135 492.4520 C 565.9320 486.6272 561.7504 480.8023 557.5689 474.9775 C 564.6635 474.4432 571.7582 473.9090 578.8528 473.3747 Z M 573.1061 468.9168 C 573.7085 466.8901 574.3109 464.8635 574.9132 462.8368 C 577.6194 462.5410 580.3256 462.2452 583.0317 461.9494 C 585.4823 465.6051 587.9328 469.2608 590.3834 472.9165 C 589.3784 475.1030 588.3734 477.2896 587.3685 479.4761 C 585.3967 479.7778 583.4249 480.0796 581.4531 480.3813 C 582.4046 478.1549 583.3561 475.9286 584.3077 473.7022 C 582.7735 471.5204 581.2394 469.3386 579.7053 467.1568 C 577.5056 467.7434 575.3058 468.3301 573.1061 468.9168 Z M 576.9979 489.7131 C 577.9580 491.4291 578.9181 493.1451 579.8782 494.8611 C 578.8920 496.9790 577.9058 499.0969 576.9196 501.2148 C 572.6915 501.6573 568.4633 502.0997 564.2351 502.5422 C 562.6435 500.6654 561.0518 498.7886 559.4602 496.9118 C 560.2598 494.8781 561.0594 492.8444 561.8590 490.8106 C 563.3018 492.9058 564.7445 495.0010 566.1873 497.0962 C 568.6633 496.9442 571.1394 496.7923 573.6154 496.6403 C 574.7429 494.3312 575.8704 492.0221 576.9979 489.7131 Z M 556.8026 481.8741 C 554.7758 482.3342 552.7490 482.7943 550.7223 483.2544 C 549.1121 481.1727 547.5019 479.0909 545.8917 477.0092 C 547.7815 472.9776 549.6714 468.9459 551.5613 464.9143 C 553.9786 464.6494 556.3959 464.3846 558.8132 464.1197 C 560.2001 465.7602 561.5870 467.4007 562.9739 469.0412 C 560.8033 469.1943 558.6327 469.3474 556.4621 469.5005 C 555.0921 472.2187 553.7221 474.9370 552.3521 477.6552 C 553.8356 479.0615 555.3191 480.4678 556.8026 481.8741 Z"/>
<path d="M 268.4682 536.0507 C 273.0773 537.3387 277.6865 538.6267 282.2957 539.9147 C 278.8069 543.3640 275.3182 546.8133 271.8294 550.2626 C 270.7090 545.5253 269.5886 540.7880 268.4682 536.0507 Z M 266.0706 540.4114 C 264.6366 540.2213 263.2025 540.0311 261.7684 539.8410 C 261.2789 538.0438 260.7893 536.2467 260.2998 534.4496 C 262.5080 532.4022 264.7161 530.3549 266.9243 528.3076 C 268.5095 528.7527 270.0947 529.1978 271.6799 529.6429 C 272.0949 530.9431 272.5098 532.2433 272.9248 533.5435 C 271.3184 533.1388 269.7120 532.7341 268.1056 532.3294 C 266.7954 533.5996 265.4851 534.8699 264.1749 536.1402 C 264.8068 537.5639 265.4387 538.9877 266.0706 540.4114 Z M 279.7079 535.5555 C 280.7648 534.7230 281.8217 533.8905 282.8786 533.0580 C 284.4154 533.4978 285.9522 533.9375 287.4890 534.3773 C 288.2406 537.1873 288.9921 539.9973 289.7437 542.8073 C 288.6458 544.0838 287.5478 545.3602 286.4499 546.6367 C 284.9899 546.3140 283.5300 545.9913 282.0700 545.6687 C 283.3315 544.4694 284.5930 543.2702 285.8544 542.0709 C 285.4867 540.4139 285.1190 538.7569 284.7513 537.0999 C 283.0702 536.5851 281.3890 536.0703 279.7079 535.5555 Z M 276.5720 550.0423 C 277.0999 551.3627 277.6277 552.6831 278.1556 554.0035 C 276.9212 555.3145 275.6867 556.6255 274.4522 557.9364 C 271.5254 557.0908 268.5986 556.2452 265.6718 555.3995 C 265.2341 553.7943 264.7964 552.1891 264.3587 550.5838 C 265.3188 549.4710 266.2790 548.3582 267.2392 547.2454 C 267.5750 548.6958 267.9108 550.1463 268.2466 551.5968 C 270.2301 552.2317 272.2137 552.8665 274.1973 553.5014 C 274.9889 552.3484 275.7804 551.1953 276.5720 550.0423 Z"/>
<path d="M 182.5906 606.7911 C 169.2551 599.2116 155.9195 591.6321 142.5840 584.0526 C 156.1084 576.0308 169.6328 568.0090 183.1572 559.9871 C 182.9683 575.5884 182.7795 591.1897 182.5906 606.7911 Z M 193.4280 595.0888 C 197.7404 596.7921 202.0528 598.4954 206.3651 600.1987 C 206.4941 606.1672 206.6231 612.1357 206.7520 618.1042 C 198.2973 622.7591 189.8426 627.4140 181.3878 632.0689 C 176.8031 629.4554 172.2184 626.8420 167.6337 624.2286 C 167.3514 619.8633 167.0691 615.4979 166.7868 611.1326 C 171.4687 613.6369 176.1506 616.1411 180.8326 618.6454 C 185.8923 615.7109 190.9520 612.7764 196.0117 609.8419 C 195.1504 604.9242 194.2892 600.0065 193.4280 595.0888 Z M 147.2519 599.6160 C 143.3195 601.3855 139.3872 603.1550 135.4548 604.9245 C 131.0164 602.3652 126.5781 599.8060 122.1397 597.2467 C 121.9812 587.9251 121.8227 578.6035 121.6642 569.2819 C 126.0685 566.1635 130.4728 563.0451 134.8771 559.9267 C 139.1673 562.0622 143.4574 564.1978 147.7476 566.3334 C 142.8946 569.0848 138.0416 571.8362 133.1886 574.5876 C 133.0474 580.0259 132.9061 585.4642 132.7648 590.9025 C 137.5938 593.8070 142.4228 596.7115 147.2519 599.6160 Z M 168.2372 556.9949 C 167.6194 552.4792 167.0016 547.9635 166.3838 543.4478 C 171.2394 540.3280 176.0949 537.2081 180.9505 534.0883 C 189.3969 538.9876 197.8434 543.8868 206.2898 548.7861 C 206.4064 554.1176 206.5230 559.4492 206.6397 564.7808 C 202.7907 567.4971 198.9418 570.2134 195.0928 572.9296 C 195.1732 568.1584 195.2536 563.3872 195.3340 558.6159 C 189.6575 555.1035 183.9810 551.5910 178.3044 548.0785 C 174.9487 551.0506 171.5929 554.0227 168.2372 556.9949 Z"/>
<path d="M 55.2113 602.7715 C 50.7139 612.5891 46.2165 622.4066 41.7191 632.2242 C 35.2634 623.2314 28.8077 614.2387 22.3520 605.2459 C 33.3051 604.4211 44.2582 603.5963 55.2113 602.7715 Z M 46.3393 595.8891 C 47.2693 592.7602 48.1992 589.6313 49.1292 586.5024 C 53.3071 586.0458 57.4851 585.5891 61.6630 585.1325 C 65.4463 590.7763 69.2297 596.4202 73.0130 602.0641 C 71.4614 605.4398 69.9099 608.8155 68.3583 612.1912 C 65.3142 612.6570 62.2700 613.1228 59.2258 613.5887 C 60.6949 610.1515 62.1639 606.7143 63.6329 603.2771 C 61.2644 599.9087 58.8959 596.5403 56.5274 593.1719 C 53.1314 594.0776 49.7353 594.9833 46.3393 595.8891 Z M 52.3476 627.9956 C 53.8298 630.6449 55.3121 633.2941 56.7944 635.9434 C 55.2719 639.2131 53.7493 642.4829 52.2268 645.7526 C 45.6991 646.4358 39.1714 647.1189 32.6437 647.8020 C 30.1864 644.9045 27.7292 642.0070 25.2719 639.1095 C 26.5064 635.9697 27.7409 632.8299 28.9754 629.6901 C 31.2028 632.9248 33.4301 636.1594 35.6575 639.3941 C 39.4802 639.1595 43.3029 638.9249 47.1255 638.6903 C 48.8662 635.1254 50.6069 631.5605 52.3476 627.9956 Z M 21.1689 615.8933 C 18.0398 616.6036 14.9108 617.3140 11.7818 618.0243 C 9.2958 614.8104 6.8099 611.5965 4.3240 608.3826 C 7.2417 602.1584 10.1594 595.9341 13.0771 589.7098 C 16.8091 589.3009 20.5411 588.8920 24.2730 588.4831 C 26.4142 591.0158 28.5553 593.5484 30.6965 596.0811 C 27.3454 596.3175 23.9943 596.5539 20.6432 596.7902 C 18.5281 600.9868 16.4130 605.1834 14.2980 609.3800 C 16.5883 611.5511 18.8786 613.7222 21.1689 615.8933 Z"/>
<path d="M 112.9600 648.6120 C 108.9368 646.5076 104.9136 644.4032 100.8904 642.2988 C 104.8083 639.7861 108.7262 637.2733 112.6441 634.7606 C 112.7494 639.3777 112.8547 643.9949 112.9600 648.6120 Z M 116.0450 645.0383 C 117.3383 645.4976 118.6316 645.9569 119.9249 646.4162 C 120.0247 648.1805 120.1245 649.9448 120.2243 651.7090 C 117.7713 653.1734 115.3183 654.6377 112.8653 656.1021 C 111.4821 655.3763 110.0988 654.6506 108.7156 653.9248 C 108.5870 652.6364 108.4584 651.3480 108.3298 650.0596 C 109.7406 650.7520 111.1515 651.4444 112.5624 652.1369 C 114.0288 651.2165 115.4953 650.2962 116.9617 649.3758 C 116.6561 647.9300 116.3506 646.4841 116.0450 645.0383 Z M 102.4320 646.8545 C 101.2870 647.4186 100.1420 647.9827 98.9970 648.5467 C 97.6576 647.8355 96.3182 647.1243 94.9788 646.4131 C 94.8356 643.6572 94.6925 640.9013 94.5493 638.1454 C 95.8199 637.1774 97.0906 636.2094 98.3613 635.2415 C 99.6524 635.8289 100.9436 636.4163 102.2348 637.0037 C 100.8276 637.8678 99.4204 638.7318 98.0132 639.5959 C 98.0276 641.2061 98.0420 642.8163 98.0564 644.4265 C 99.5149 645.2359 100.9734 646.0452 102.4320 646.8545 Z M 108.1995 634.0296 C 107.9701 632.7001 107.7407 631.3707 107.5113 630.0412 C 108.9155 629.0681 110.3196 628.0951 111.7238 627.1220 C 114.2730 628.4841 116.8222 629.8461 119.3715 631.2081 C 119.4611 632.7841 119.5506 634.3601 119.6402 635.9361 C 118.5297 636.7794 117.4191 637.6227 116.3086 638.4660 C 116.2831 637.0537 116.2576 635.6414 116.2321 634.2292 C 114.5166 633.2488 112.8010 632.2683 111.0855 631.2879 C 110.1235 632.2018 109.1615 633.1157 108.1995 634.0296 Z"/>
<path d="M 292.8315 695.7835 C 289.7211 704.0531 286.6107 712.3228 283.5003 720.5924 C 277.7180 713.6211 271.9356 706.6498 266.1533 699.6785 C 275.0461 698.3801 283.9388 697.0818 292.8315 695.7835 Z M 285.1975 690.6724 C 285.7779 688.0656 286.3584 685.4588 286.9388 682.8520 C 290.3228 682.2408 293.7067 681.6296 297.0906 681.0185 C 300.5006 685.4090 303.9106 689.7995 307.3207 694.1901 C 306.2470 697.0338 305.1733 699.8776 304.0996 702.7213 C 301.6416 703.2753 299.1835 703.8292 296.7255 704.3832 C 297.7283 701.4940 298.7311 698.6047 299.7340 695.7155 C 297.6086 693.1014 295.4832 690.4873 293.3579 687.8732 C 290.6377 688.8063 287.9176 689.7394 285.1975 690.6724 Z M 291.9338 716.5345 C 293.2948 718.6122 294.6558 720.6899 296.0168 722.7676 C 294.9608 725.5233 293.9047 728.2789 292.8487 731.0345 C 287.5598 731.9646 282.2710 732.8947 276.9821 733.8248 C 274.8112 731.6002 272.6402 729.3755 270.4693 727.1509 C 271.2976 724.5177 272.1260 721.8846 272.9544 719.2515 C 274.9570 721.7645 276.9595 724.2774 278.9621 726.7904 C 282.0688 726.3808 285.1754 725.9711 288.2820 725.5615 C 289.4993 722.5525 290.7165 719.5435 291.9338 716.5345 Z M 265.7954 708.4362 C 263.2820 709.1946 260.7687 709.9529 258.2554 710.7113 C 256.0429 708.2300 253.8305 705.7488 251.6181 703.2675 C 253.6443 698.0208 255.6704 692.7741 257.6965 687.5274 C 260.7192 686.9807 263.7419 686.4339 266.7646 685.8872 C 268.6567 687.8321 270.5488 689.7770 272.4410 691.7220 C 269.7193 692.1062 266.9977 692.4904 264.2760 692.8745 C 262.7892 696.4205 261.3025 699.9664 259.8157 703.5123 C 261.8089 705.1536 263.8021 706.7949 265.7954 708.4362 Z"/>
<path d="M 465.7168 745.9068 C 470.1327 746.0311 474.5486 746.1554 478.9645 746.2798 C 476.6100 750.1482 474.2555 754.0167 471.9010 757.8852 C 469.8396 753.8924 467.7782 749.8996 465.7168 745.9068 Z M 464.5432 750.3479 C 463.2163 750.4978 461.8894 750.6478 460.5626 750.7977 C 459.7228 749.2974 458.8830 747.7971 458.0432 746.2968 C 459.5638 743.9700 461.0843 741.6432 462.6049 739.3163 C 464.1241 739.3610 465.6433 739.4057 467.1625 739.4504 C 467.8245 740.5223 468.4865 741.5941 469.1485 742.6660 C 467.6194 742.6623 466.0902 742.6585 464.5611 742.6547 C 463.6712 744.0850 462.7814 745.5154 461.8915 746.9457 C 462.7754 748.0798 463.6593 749.2138 464.5432 750.3479 Z M 475.6732 742.9533 C 476.4339 741.9717 477.1946 740.9900 477.9553 740.0084 C 479.4300 740.0590 480.9046 740.1097 482.3793 740.1604 C 483.6799 742.5094 484.9806 744.8583 486.2813 747.2073 C 485.5829 748.5957 484.8846 749.9842 484.1863 751.3727 C 482.8066 751.4097 481.4269 751.4467 480.0472 751.4837 C 480.9093 750.1279 481.7713 748.7721 482.6334 747.4163 C 481.9340 746.0143 481.2346 744.6123 480.5352 743.2103 C 478.9146 743.1246 477.2939 743.0390 475.6732 742.9533 Z M 476.0996 756.6288 C 476.8672 757.6935 477.6349 758.7583 478.4025 759.8230 C 477.5896 761.2729 476.7768 762.7227 475.9639 764.1726 C 473.1536 764.0688 470.3434 763.9650 467.5331 763.8612 C 466.7826 762.5212 466.0321 761.1812 465.2815 759.8412 C 465.8930 758.6301 466.5045 757.4189 467.1160 756.2078 C 467.7406 757.4320 468.3653 758.6561 468.9900 759.8802 C 470.9084 760.0059 472.8268 760.1316 474.7451 760.2573 C 475.1966 759.0478 475.6481 757.8383 476.0996 756.6288 Z"/>
<path d="M 128.0812 721.9804 C 151.6188 725.5454 175.1565 729.1103 198.6942 732.6753 C 183.5601 751.8204 168.4260 770.9655 153.2920 790.1106 C 144.8884 767.4005 136.4848 744.6904 128.0812 721.9804 Z M 118.8874 744.9637 C 111.6917 744.8942 104.4961 744.8247 97.3004 744.7553 C 93.7940 736.1791 90.2875 727.6029 86.7810 719.0268 C 96.4423 707.5798 106.1035 696.1329 115.7647 684.6860 C 123.8611 685.9227 131.9575 687.1594 140.0539 688.3961 C 142.8909 694.5640 145.7278 700.7320 148.5648 706.8999 C 140.3883 705.8755 132.2118 704.8511 124.0352 703.8267 C 118.3363 710.8926 112.6373 717.9586 106.9383 725.0246 C 110.9213 731.6710 114.9043 738.3173 118.8874 744.9637 Z M 183.2748 712.7216 C 187.9882 707.9706 192.7017 703.2196 197.4152 698.4686 C 205.2694 699.7082 213.1237 700.9477 220.9779 702.1873 C 226.3921 715.6054 231.8064 729.0235 237.2206 742.4415 C 232.5735 749.4095 227.9265 756.3774 223.2794 763.3454 C 215.8756 762.6372 208.4717 761.9291 201.0679 761.2210 C 206.5692 754.5353 212.0704 747.8495 217.5717 741.1638 C 214.7517 733.2056 211.9317 725.2473 209.1117 717.2891 C 200.4994 715.7666 191.8871 714.2441 183.2748 712.7216 Z M 176.5741 786.1477 C 179.9808 792.3470 183.3875 798.5462 186.7942 804.7455 C 181.4941 811.9665 176.1940 819.1874 170.8939 826.4084 C 155.9308 824.0076 140.9677 821.6068 126.0046 819.2060 C 122.8703 811.5458 119.7360 803.8857 116.6017 796.2255 C 120.6677 790.1491 124.7337 784.0727 128.7998 777.9963 C 131.3370 784.9542 133.8742 791.9120 136.4114 798.8698 C 146.5898 800.8019 156.7682 802.7340 166.9467 804.6661 C 170.1558 798.4933 173.3650 792.3205 176.5741 786.1477 Z"/>
<g transform="translate(448 598)"><path d="M 0.1706 -137.9539 L 8.8723 -119.7462 L 46.1380 -141.4026 L 63.4596 -101.9351 L 81.2253 -111.5068 L 77.5629 -91.6617 L 120.4408 -87.2779 L 111.2558 -45.1666 L 131.2547 -42.4678 L 116.6271 -28.5655 L 148.7393 0.1840 L 116.5561 28.8540 L 131.1493 42.7924 L 111.1437 45.4417 L 120.2245 87.5756 L 77.3359 91.8533 L 80.9492 111.7074 L 63.2072 102.0918 L 45.7880 141.5164 L 8.5761 119.7678 L -0.1706 137.9539 L -8.8723 119.7462 L -46.1380 141.4026 L -63.4596 101.9351 L -81.2253 111.5068 L -77.5629 91.6617 L -120.4408 87.2779 L -111.2558 45.1666 L -131.2547 42.4678 L -116.6271 28.5655 L -148.7393 -0.1840 L -116.5561 -28.8540 L -131.1493 -42.7924 L -111.1437 -45.4417 L -120.2245 -87.5756 L -77.3359 -91.8533 L -80.9492 -111.7074 L -63.2072 -102.0918 L -45.7880 -141.5164 L -8.5761 -119.7678 Z M 105 0 A 105 105 0 1 0 -105 0 A 105 105 0 1 0 105 0 Z"/><path d="M 8.3677 -104.6660 A 105 105 0 0 1 54.9731 -89.4593 L 31.1514 -50.6936 A 59.5 59.5 0 0 0 4.7417 -59.3108 Z"/><path d="M 68.2908 -79.7582 A 105 105 0 0 1 97.0570 -40.0617 L 54.9990 -22.7016 A 59.5 59.5 0 0 0 38.6981 -45.1963 Z"/><path d="M 102.1291 -24.3854 A 105 105 0 0 1 102.0684 24.6380 L 57.8388 13.9616 A 59.5 59.5 0 0 0 57.8731 -13.8184 Z"/><path d="M 96.9576 40.3017 A 105 105 0 0 1 68.0932 79.9269 L 38.5862 45.2919 A 59.5 59.5 0 0 0 54.9426 22.8376 Z"/><path d="M 54.7516 89.5950 A 105 105 0 0 1 8.1087 104.6864 L 4.5949 59.3223 A 59.5 59.5 0 0 0 31.0259 50.7705 Z"/><path d="M -8.3677 104.6660 A 105 105 0 0 1 -54.9731 89.4593 L -31.1514 50.6936 A 59.5 59.5 0 0 0 -4.7417 59.3108 Z"/><path d="M -68.2908 79.7582 A 105 105 0 0 1 -97.0570 40.0617 L -54.9990 22.7016 A 59.5 59.5 0 0 0 -38.6981 45.1963 Z"/><path d="M -102.1291 24.3854 A 105 105 0 0 1 -102.0684 -24.6380 L -57.8388 -13.9616 A 59.5 59.5 0 0 0 -57.8731 13.8184 Z"/><path d="M -96.9576 -40.3017 A 105 105 0 0 1 -68.0932 -79.9269 L -38.5862 -45.2919 A 59.5 59.5 0 0 0 -54.9426 -22.8376 Z"/><path d="M -54.7516 -89.5950 A 105 105 0 0 1 -8.1087 -104.6864 L -4.5949 -59.3223 A 59.5 59.5 0 0 0 -31.0259 -50.7705 Z"/></g><path d="M 439.8885 578.8142 C 449.8647 585.9597 459.8409 593.1052 469.8170 600.2507 C 458.3860 605.5021 446.9549 610.7535 435.5239 616.0048 C 436.9788 603.6079 438.4336 591.2111 439.8885 578.8142 Z M 430.2875 587.2185 C 426.9990 585.5027 423.7104 583.7869 420.4218 582.0711 C 420.8183 577.3116 421.2148 572.5522 421.6113 567.7928 C 428.7273 564.7963 435.8433 561.7998 442.9593 558.8033 C 446.3884 561.2660 449.8175 563.7286 453.2467 566.1913 C 453.1062 569.6880 452.9658 573.1848 452.8254 576.6815 C 449.3098 574.2976 445.7942 571.9136 442.2786 569.5297 C 438.0076 571.4413 433.7366 573.3529 429.4656 575.2646 C 429.7396 579.2492 430.0136 583.2338 430.2875 587.2185 Z M 467.4047 587.4779 C 470.6813 586.3989 473.9579 585.3199 477.2345 584.2409 C 480.5518 586.6482 483.8690 589.0555 487.1862 591.4629 C 486.5328 598.8926 485.8794 606.3223 485.2260 613.7519 C 481.4611 615.8647 477.6962 617.9775 473.9313 620.0902 C 470.6966 618.0324 467.4618 615.9745 464.2271 613.9167 C 468.3183 612.1335 472.4095 610.3502 476.5007 608.5670 C 477.0678 604.2520 477.6350 599.9370 478.2022 595.6220 C 474.6030 592.9073 471.0039 590.1926 467.4047 587.4779 Z M 447.1443 619.6332 C 447.2582 623.2776 447.3721 626.9220 447.4860 630.5664 C 443.3620 632.6426 439.2379 634.7188 435.1138 636.7949 C 428.8034 632.1907 422.4929 627.5864 416.1825 622.9822 C 416.5355 618.7305 416.8886 614.4789 417.2417 610.2272 C 420.5311 608.3880 423.8205 606.5487 427.1100 604.7094 C 426.6470 608.4988 426.1841 612.2882 425.7211 616.0775 C 429.9438 619.3468 434.1664 622.6161 438.3890 625.8853 C 441.3074 623.8013 444.2259 621.7172 447.1443 619.6332 Z"/>
<g fill="white"><path d="M 468.7006 512.4338 C 472.9111 513.7705 477.1217 515.1071 481.3322 516.4438 C 478.0026 519.5134 474.6731 522.5831 471.3435 525.6527 C 470.4625 521.2464 469.5815 516.8401 468.7006 512.4338 Z M 466.3483 516.3793 C 465.0315 516.1577 463.7147 515.9361 462.3979 515.7145 C 462.0041 514.0408 461.6104 512.3672 461.2167 510.6935 C 463.3197 508.8760 465.4228 507.0584 467.5258 505.2408 C 468.9738 505.7025 470.4218 506.1642 471.8699 506.6259 C 472.2108 507.8388 472.5517 509.0516 472.8926 510.2644 C 471.4237 509.8393 469.9549 509.4142 468.4860 508.9891 C 467.2364 510.1187 465.9867 511.2484 464.7371 512.3780 C 465.2742 513.7118 465.8112 515.0456 466.3483 516.3793 Z M 479.0854 512.3390 C 480.0872 511.6051 481.0890 510.8711 482.0908 510.1372 C 483.4944 510.5924 484.8979 511.0476 486.3015 511.5028 C 486.9043 514.1192 487.5071 516.7357 488.1099 519.3522 C 487.0559 520.4944 486.0019 521.6366 484.9479 522.7788 C 483.6115 522.4341 482.2751 522.0894 480.9386 521.7446 C 482.1410 520.6790 483.3433 519.6133 484.5457 518.5476 C 484.2599 517.0071 483.9740 515.4667 483.6882 513.9262 C 482.1539 513.3971 480.6196 512.8681 479.0854 512.3390 Z M 475.7257 525.6022 C 476.1702 526.8373 476.6146 528.0725 477.0590 529.3076 C 475.8780 530.4772 474.6970 531.6468 473.5159 532.8164 C 470.8431 531.9420 468.1704 531.0676 465.4976 530.1933 C 465.1455 528.6983 464.7934 527.2033 464.4413 525.7084 C 465.3629 524.7127 466.2846 523.7171 467.2062 522.7214 C 467.4692 524.0703 467.7323 525.4192 467.9953 526.7681 C 469.8048 527.4177 471.6142 528.0673 473.4236 528.7169 C 474.1910 527.6786 474.9584 526.6404 475.7257 525.6022 Z"/><path d="M 515.0417 540.9430 C 517.6624 544.4993 520.2831 548.0556 522.9039 551.6118 C 518.4059 552.1382 513.9079 552.6645 509.4100 553.1908 C 511.2872 549.1082 513.1644 545.0256 515.0417 540.9430 Z M 510.8195 542.7524 C 509.8845 541.7991 508.9494 540.8458 508.0143 539.8925 C 508.6795 538.3070 509.3448 536.7216 510.0100 535.1362 C 512.7797 534.9019 515.5494 534.6676 518.3192 534.4332 C 519.2193 535.6579 520.1194 536.8825 521.0195 538.1072 C 520.5824 539.2888 520.1453 540.4704 519.7082 541.6520 C 518.7698 540.4446 517.8313 539.2373 516.8928 538.0300 C 515.2179 538.2094 513.5429 538.3888 511.8679 538.5681 C 511.5185 539.9629 511.1690 541.3576 510.8195 542.7524 Z M 523.4988 546.9703 C 524.7407 546.9654 525.9826 546.9605 527.2245 546.9556 C 528.0924 548.1488 528.9604 549.3421 529.8283 550.5353 C 528.7781 553.0064 527.7279 555.4775 526.6776 557.9486 C 525.1536 558.2531 523.6295 558.5577 522.1054 558.8622 C 521.2269 557.7978 520.3483 556.7334 519.4697 555.6690 C 521.0688 555.5135 522.6679 555.3581 524.2671 555.2027 C 524.9413 553.7884 525.6155 552.3741 526.2897 550.9599 C 525.3594 549.6300 524.4291 548.3002 523.4988 546.9703 Z M 512.9849 555.7258 C 512.6185 556.9862 512.2521 558.2467 511.8857 559.5071 C 510.2427 559.7592 508.5997 560.0112 506.9568 560.2633 C 505.3084 557.9848 503.6600 555.7064 502.0117 553.4280 C 502.6055 552.0116 503.1994 550.5952 503.7932 549.1788 C 505.1241 548.9150 506.4549 548.6512 507.7858 548.3874 C 507.2057 549.6333 506.6257 550.8792 506.0456 552.1251 C 507.1277 553.7142 508.2097 555.3033 509.2918 556.8924 C 510.5228 556.5035 511.7539 556.1146 512.9849 555.7258 Z"/><path d="M 535.7751 591.2460 C 535.8050 595.6635 535.8349 600.0811 535.8648 604.4986 C 531.9165 602.2805 527.9682 600.0625 524.0199 597.8444 C 527.9383 595.6450 531.8567 593.4455 535.7751 591.2460 Z M 531.2958 590.2281 C 531.0997 588.9073 530.9035 587.5864 530.7074 586.2656 C 532.1774 585.3739 533.6475 584.4823 535.1176 583.5907 C 537.4960 585.0291 539.8745 586.4675 542.2530 587.9060 C 542.2614 589.4258 542.2697 590.9456 542.2781 592.4655 C 541.2300 593.1645 540.1818 593.8635 539.1337 594.5625 C 539.0841 593.0342 539.0345 591.5058 538.9849 589.9775 C 537.5244 589.1381 536.0639 588.2987 534.6034 587.4593 C 533.5009 588.3822 532.3983 589.3052 531.2958 590.2281 Z M 539.0743 601.0932 C 540.0819 601.8192 541.0895 602.5452 542.0971 603.2712 C 542.0979 604.7467 542.0987 606.2222 542.0996 607.6978 C 539.7974 609.0796 537.4953 610.4614 535.1932 611.8433 C 533.7812 611.1938 532.3692 610.5444 530.9572 609.8949 C 530.8720 608.5174 530.7869 607.1398 530.7018 605.7623 C 532.0868 606.5765 533.4719 607.3907 534.8570 608.2049 C 536.2337 607.4570 537.6105 606.7091 538.9872 605.9613 C 539.0162 604.3386 539.0453 602.7159 539.0743 601.0932 Z M 525.4221 601.9966 C 524.3848 602.8010 523.3474 603.6053 522.3101 604.4096 C 520.8328 603.6479 519.3555 602.8861 517.8781 602.1243 C 517.8838 599.3121 517.8894 596.4999 517.8951 593.6878 C 519.2081 592.8909 520.5211 592.0941 521.8341 591.2973 C 523.0658 591.8661 524.2975 592.4349 525.5292 593.0038 C 524.3277 593.6708 523.1261 594.3378 521.9245 595.0048 C 521.8658 596.9264 521.8072 598.8480 521.7485 600.7696 C 522.9730 601.1786 524.1976 601.5876 525.4221 601.9966 Z"/><path d="M 522.9815 644.1288 C 520.4091 647.7202 517.8367 651.3117 515.2643 654.9031 C 513.3738 650.7879 511.4833 646.6727 509.5928 642.5575 C 514.0557 643.0813 518.5186 643.6051 522.9815 644.1288 Z M 519.9559 640.6725 C 520.5736 639.4886 521.1913 638.3047 521.8090 637.1208 C 523.5224 637.2635 525.2358 637.4063 526.9492 637.5490 C 528.0279 640.1108 529.1067 642.6725 530.1854 645.2343 C 529.2988 646.4688 528.4123 647.7033 527.5257 648.9377 C 526.2669 648.8872 525.0081 648.8366 523.7492 648.7861 C 524.6075 647.5205 525.4657 646.2548 526.3239 644.9892 C 525.6357 643.4517 524.9475 641.9141 524.2593 640.3766 C 522.8249 640.4752 521.3904 640.5738 519.9559 640.6725 Z M 519.8625 654.0346 C 520.2510 655.2142 520.6394 656.3938 521.0279 657.5734 C 520.1612 658.7676 519.2946 659.9618 518.4279 661.1560 C 515.7533 660.9208 513.0786 660.6855 510.4039 660.4503 C 509.6433 659.0949 508.8827 657.7396 508.1221 656.3842 C 508.8629 655.2197 509.6037 654.0552 510.3446 652.8907 C 510.9865 654.3635 511.6285 655.8364 512.2705 657.3092 C 513.8239 657.5134 515.3773 657.7176 516.9307 657.9217 C 517.9080 656.6260 518.8852 655.3303 519.8625 654.0346 Z M 508.2866 646.7409 C 506.9746 646.7819 505.6626 646.8229 504.3507 646.8639 C 503.6032 645.3792 502.8558 643.8946 502.1084 642.4099 C 503.7659 640.1382 505.4235 637.8664 507.0810 635.5946 C 508.6116 635.7217 510.1422 635.8488 511.6728 635.9759 C 512.3349 637.1601 512.9970 638.3443 513.6592 639.5285 C 512.2950 639.3619 510.9308 639.1952 509.5667 639.0285 C 508.3897 640.5487 507.2128 642.0688 506.0359 643.5890 C 506.7861 644.6396 507.5364 645.6903 508.2866 646.7409 Z"/><path d="M 481.5475 679.3920 C 477.3554 680.7855 473.1633 682.1790 468.9712 683.5725 C 469.8606 679.1321 470.7500 674.6916 471.6394 670.2512 C 474.9421 673.2981 478.2448 676.3451 481.5475 679.3920 Z M 481.1313 674.8174 C 482.3269 674.2227 483.5225 673.6279 484.7181 673.0332 C 486.0204 674.1558 487.3226 675.2784 488.6249 676.4010 C 487.9919 679.1076 487.3588 681.8141 486.7258 684.5207 C 485.2829 684.9983 483.8401 685.4759 482.3972 685.9535 C 481.4085 685.1727 480.4198 684.3919 479.4311 683.6111 C 480.8693 683.0916 482.3076 682.5722 483.7458 682.0527 C 484.0928 680.4043 484.4398 678.7559 484.7868 677.1075 C 483.5683 676.3441 482.3498 675.5807 481.1313 674.8174 Z M 473.2017 685.5727 C 472.8226 686.7553 472.4435 687.9379 472.0644 689.1206 C 470.6614 689.5773 469.2583 690.0340 467.8553 690.4908 C 465.8296 688.7283 463.8040 686.9659 461.7784 685.2034 C 461.9598 683.6599 462.1411 682.1163 462.3224 680.5727 C 463.6062 680.0660 464.8901 679.5594 466.1739 679.0527 C 465.8275 680.6216 465.4812 682.1905 465.1348 683.7594 C 466.2716 684.8376 467.4083 685.9159 468.5450 686.9941 C 470.0972 686.5203 471.6494 686.0465 473.2017 685.5727 Z M 468.1237 672.8678 C 467.0382 672.1298 465.9527 671.3918 464.8672 670.6538 C 465.1351 669.0134 465.4031 667.3729 465.6711 665.7325 C 468.3474 664.8689 471.0237 664.0053 473.7000 663.1416 C 474.8635 664.1441 476.0271 665.1466 477.1907 666.1491 C 477.0303 667.4963 476.8699 668.8436 476.7095 670.1908 C 475.7039 669.2541 474.6982 668.3174 473.6925 667.3808 C 471.8468 667.9188 470.0011 668.4568 468.1555 668.9949 C 468.1449 670.2859 468.1343 671.5768 468.1237 672.8678 Z"/><path d="M 427.2994 683.5662 C 423.0889 682.2295 418.8783 680.8929 414.6678 679.5562 C 417.9974 676.4866 421.3269 673.4169 424.6565 670.3473 C 425.5375 674.7536 426.4185 679.1599 427.2994 683.5662 Z M 429.6517 679.6207 C 430.9685 679.8423 432.2853 680.0639 433.6021 680.2855 C 433.9959 681.9592 434.3896 683.6328 434.7833 685.3065 C 432.6803 687.1240 430.5772 688.9416 428.4742 690.7592 C 427.0262 690.2975 425.5782 689.8358 424.1301 689.3741 C 423.7892 688.1612 423.4483 686.9484 423.1074 685.7356 C 424.5763 686.1607 426.0451 686.5858 427.5140 687.0109 C 428.7636 685.8813 430.0133 684.7516 431.2629 683.6220 C 430.7258 682.2882 430.1888 680.9544 429.6517 679.6207 Z M 416.9146 683.6610 C 415.9128 684.3949 414.9110 685.1289 413.9092 685.8628 C 412.5056 685.4076 411.1021 684.9524 409.6985 684.4972 C 409.0957 681.8808 408.4929 679.2643 407.8901 676.6478 C 408.9441 675.5056 409.9981 674.3634 411.0521 673.2212 C 412.3885 673.5659 413.7249 673.9106 415.0614 674.2554 C 413.8590 675.3210 412.6567 676.3867 411.4543 677.4524 C 411.7401 678.9929 412.0260 680.5333 412.3118 682.0738 C 413.8461 682.6029 415.3804 683.1319 416.9146 683.6610 Z M 420.2743 670.3978 C 419.8298 669.1627 419.3854 667.9275 418.9410 666.6924 C 420.1220 665.5228 421.3030 664.3532 422.4841 663.1836 C 425.1569 664.0580 427.8296 664.9324 430.5024 665.8067 C 430.8545 667.3017 431.2066 668.7967 431.5587 670.2916 C 430.6371 671.2873 429.7154 672.2829 428.7938 673.2786 C 428.5308 671.9297 428.2677 670.5808 428.0047 669.2319 C 426.1952 668.5823 424.3858 667.9327 422.5764 667.2831 C 421.8090 668.3214 421.0416 669.3596 420.2743 670.3978 Z"/><path d="M 380.9583 655.0570 C 378.3376 651.5007 375.7169 647.9444 373.0961 644.3882 C 377.5941 643.8618 382.0921 643.3355 386.5900 642.8092 C 384.7128 646.8918 382.8356 650.9744 380.9583 655.0570 Z M 385.1805 653.2476 C 386.1155 654.2009 387.0506 655.1542 387.9857 656.1075 C 387.3205 657.6930 386.6552 659.2784 385.9900 660.8638 C 383.2203 661.0981 380.4506 661.3324 377.6808 661.5668 C 376.7807 660.3421 375.8806 659.1175 374.9805 657.8928 C 375.4176 656.7112 375.8547 655.5296 376.2918 654.3480 C 377.2302 655.5554 378.1687 656.7627 379.1072 657.9700 C 380.7821 657.7906 382.4571 657.6112 384.1321 657.4319 C 384.4815 656.0371 384.8310 654.6424 385.1805 653.2476 Z M 372.5012 649.0297 C 371.2593 649.0346 370.0174 649.0395 368.7755 649.0444 C 367.9076 647.8512 367.0396 646.6579 366.1717 645.4647 C 367.2219 642.9936 368.2721 640.5225 369.3224 638.0514 C 370.8464 637.7469 372.3705 637.4423 373.8946 637.1378 C 374.7731 638.2022 375.6517 639.2666 376.5303 640.3310 C 374.9312 640.4865 373.3321 640.6419 371.7329 640.7973 C 371.0587 642.2116 370.3845 643.6259 369.7103 645.0401 C 370.6406 646.3700 371.5709 647.6998 372.5012 649.0297 Z M 383.0151 640.2742 C 383.3815 639.0138 383.7479 637.7533 384.1143 636.4929 C 385.7573 636.2408 387.4003 635.9888 389.0432 635.7367 C 390.6916 638.0152 392.3400 640.2936 393.9883 642.5720 C 393.3945 643.9884 392.8006 645.4048 392.2068 646.8212 C 390.8759 647.0850 389.5451 647.3488 388.2142 647.6126 C 388.7943 646.3667 389.3743 645.1208 389.9544 643.8749 C 388.8723 642.2858 387.7903 640.6967 386.7082 639.1076 C 385.4772 639.4965 384.2461 639.8854 383.0151 640.2742 Z"/><path d="M 360.2249 604.7540 C 360.1950 600.3365 360.1651 595.9189 360.1352 591.5014 C 364.0835 593.7195 368.0318 595.9375 371.9801 598.1556 C 368.0617 600.3550 364.1433 602.5545 360.2249 604.7540 Z M 364.7042 605.7719 C 364.9003 607.0927 365.0965 608.4136 365.2926 609.7344 C 363.8226 610.6261 362.3525 611.5177 360.8824 612.4093 C 358.5040 610.9709 356.1255 609.5325 353.7470 608.0940 C 353.7386 606.5742 353.7303 605.0544 353.7219 603.5345 C 354.7700 602.8355 355.8182 602.1365 356.8663 601.4375 C 356.9159 602.9658 356.9655 604.4942 357.0151 606.0225 C 358.4756 606.8619 359.9361 607.7013 361.3966 608.5407 C 362.4991 607.6178 363.6017 606.6948 364.7042 605.7719 Z M 356.9257 594.9068 C 355.9181 594.1808 354.9105 593.4548 353.9029 592.7288 C 353.9021 591.2533 353.9013 589.7778 353.9004 588.3022 C 356.2026 586.9204 358.5047 585.5386 360.8068 584.1567 C 362.2188 584.8062 363.6308 585.4556 365.0428 586.1051 C 365.1280 587.4826 365.2131 588.8602 365.2982 590.2377 C 363.9132 589.4235 362.5281 588.6093 361.1430 587.7951 C 359.7663 588.5430 358.3895 589.2909 357.0128 590.0387 C 356.9838 591.6614 356.9547 593.2841 356.9257 594.9068 Z M 370.5779 594.0034 C 371.6152 593.1990 372.6526 592.3947 373.6899 591.5904 C 375.1672 592.3521 376.6445 593.1139 378.1219 593.8757 C 378.1162 596.6879 378.1106 599.5001 378.1049 602.3122 C 376.7919 603.1091 375.4789 603.9059 374.1659 604.7027 C 372.9342 604.1339 371.7025 603.5651 370.4708 602.9962 C 371.6723 602.3292 372.8739 601.6622 374.0755 600.9952 C 374.1342 599.0736 374.1928 597.1520 374.2515 595.2304 C 373.0270 594.8214 371.8024 594.4124 370.5779 594.0034 Z"/><path d="M 373.0185 551.8712 C 375.5909 548.2798 378.1633 544.6883 380.7357 541.0969 C 382.6262 545.2121 384.5167 549.3273 386.4072 553.4425 C 381.9443 552.9187 377.4814 552.3949 373.0185 551.8712 Z M 376.0441 555.3275 C 375.4264 556.5114 374.8087 557.6953 374.1910 558.8792 C 372.4776 558.7365 370.7642 558.5937 369.0508 558.4510 C 367.9721 555.8892 366.8933 553.3275 365.8146 550.7657 C 366.7012 549.5312 367.5877 548.2967 368.4743 547.0623 C 369.7331 547.1128 370.9919 547.1634 372.2508 547.2139 C 371.3925 548.4795 370.5343 549.7452 369.6761 551.0108 C 370.3643 552.5483 371.0525 554.0859 371.7407 555.6234 C 373.1751 555.5248 374.6096 555.4262 376.0441 555.3275 Z M 376.1375 541.9654 C 375.7490 540.7858 375.3606 539.6062 374.9721 538.4266 C 375.8388 537.2324 376.7054 536.0382 377.5721 534.8440 C 380.2467 535.0792 382.9214 535.3145 385.5961 535.5497 C 386.3567 536.9051 387.1173 538.2604 387.8779 539.6158 C 387.1371 540.7803 386.3963 541.9448 385.6554 543.1093 C 385.0135 541.6365 384.3715 540.1636 383.7295 538.6908 C 382.1761 538.4866 380.6227 538.2824 379.0693 538.0783 C 378.0920 539.3740 377.1148 540.6697 376.1375 541.9654 Z M 387.7134 549.2591 C 389.0254 549.2181 390.3374 549.1771 391.6493 549.1361 C 392.3968 550.6208 393.1442 552.1054 393.8916 553.5901 C 392.2341 555.8618 390.5765 558.1336 388.9190 560.4054 C 387.3884 560.2783 385.8578 560.1512 384.3272 560.0241 C 383.6651 558.8399 383.0030 557.6557 382.3408 556.4715 C 383.7050 556.6381 385.0692 556.8048 386.4333 556.9715 C 387.6103 555.4513 388.7872 553.9312 389.9641 552.4110 C 389.2139 551.3604 388.4636 550.3097 387.7134 549.2591 Z"/><path d="M 414.4525 516.6080 C 418.6446 515.2145 422.8367 513.8210 427.0288 512.4275 C 426.1394 516.8679 425.2500 521.3084 424.3606 525.7488 C 421.0579 522.7019 417.7552 519.6549 414.4525 516.6080 Z M 414.8687 521.1826 C 413.6731 521.7773 412.4775 522.3721 411.2819 522.9668 C 409.9796 521.8442 408.6774 520.7216 407.3751 519.5990 C 408.0081 516.8924 408.6412 514.1859 409.2742 511.4793 C 410.7171 511.0017 412.1599 510.5241 413.6028 510.0465 C 414.5915 510.8273 415.5802 511.6081 416.5689 512.3889 C 415.1307 512.9084 413.6924 513.4278 412.2542 513.9473 C 411.9072 515.5957 411.5602 517.2441 411.2132 518.8925 C 412.4317 519.6559 413.6502 520.4193 414.8687 521.1826 Z M 422.7983 510.4273 C 423.1774 509.2447 423.5565 508.0621 423.9356 506.8794 C 425.3386 506.4227 426.7417 505.9660 428.1447 505.5092 C 430.1704 507.2717 432.1960 509.0341 434.2216 510.7966 C 434.0402 512.3401 433.8589 513.8837 433.6776 515.4273 C 432.3938 515.9340 431.1099 516.4406 429.8261 516.9473 C 430.1725 515.3784 430.5188 513.8095 430.8652 512.2406 C 429.7284 511.1624 428.5917 510.0841 427.4550 509.0059 C 425.9028 509.4797 424.3506 509.9535 422.7983 510.4273 Z M 427.8763 523.1322 C 428.9618 523.8702 430.0473 524.6082 431.1328 525.3462 C 430.8649 526.9866 430.5969 528.6271 430.3289 530.2675 C 427.6526 531.1311 424.9763 531.9947 422.3000 532.8584 C 421.1365 531.8559 419.9729 530.8534 418.8093 529.8509 C 418.9697 528.5037 419.1301 527.1564 419.2905 525.8092 C 420.2961 526.7459 421.3018 527.6826 422.3075 528.6192 C 424.1532 528.0812 425.9989 527.5432 427.8445 527.0051 C 427.8551 525.7141 427.8657 524.4232 427.8763 523.1322 Z"/></g></g>
<path d="M 40.528 63.348 L 37.824 53.885 Q 37.000 51.000 39.992 50.778 L 88.008 47.222 Q 91.000 47.000 91.176 49.995 L 91.881 61.975 Q 92.000 64.000 90.460 65.320 L 86.540 68.680 Q 85.000 70.000 82.972 70.052 L 47.718 70.956 Q 46.000 71.000 44.900 69.680 L 42.100 66.320 Q 41.000 65.000 40.528 63.348 Z"/>
<path d="M 27.220 81.460 L 27.780 77.540 Q 28.000 76.000 29.555 75.977 L 95.591 75.020 Q 97.000 75.000 97.880 76.100 L 100.120 78.900 Q 101.000 80.000 99.593 80.073 L 45.996 82.845 Q 43.000 83.000 40.000 83.000 L 28.556 83.000 Q 27.000 83.000 27.220 81.460 Z"/>
<path d="M 108.971 57.162 L 120.029 24.838 Q 121.000 22.000 124.000 22.000 L 162.000 22.000 Q 165.000 22.000 164.086 24.857 L 157.914 44.143 Q 157.000 47.000 157.510 49.956 L 161.490 73.044 Q 162.000 76.000 159.010 76.242 L 127.990 78.758 Q 125.000 79.000 123.000 76.764 L 110.000 62.236 Q 108.000 60.000 108.971 57.162 Z"/>
<path d="M 170.675 46.077 L 175.325 25.923 Q 176.000 23.000 179.000 23.000 L 192.000 23.000 Q 195.000 23.000 196.037 25.815 L 200.963 39.185 Q 202.000 42.000 200.759 44.731 L 193.241 61.269 Q 192.000 64.000 190.578 66.641 L 186.422 74.359 Q 185.000 77.000 182.005 76.824 L 170.995 76.176 Q 168.000 76.000 168.222 73.008 L 169.778 51.992 Q 170.000 49.000 170.675 46.077 Z"/>
<path d="M 202.624 68.066 L 211.376 26.934 Q 212.000 24.000 214.996 23.846 L 248.004 22.154 Q 251.000 22.000 252.342 24.683 L 257.658 35.317 Q 259.000 38.000 261.596 39.503 L 275.404 47.497 Q 278.000 49.000 276.378 51.524 L 270.622 60.476 Q 269.000 63.000 266.464 64.602 L 252.536 73.398 Q 250.000 75.000 247.041 75.493 L 216.959 80.507 Q 214.000 81.000 211.695 79.079 L 204.305 72.921 Q 202.000 71.000 202.624 68.066 Z"/>
<path d="M 296.117 48.704 L 293.027 40.669 Q 292.000 38.000 294.860 38.000 L 302.200 38.000 Q 305.000 38.000 306.980 39.980 L 312.680 45.680 Q 314.000 47.000 312.680 48.320 L 309.320 51.680 Q 308.000 53.000 306.163 52.666 L 299.420 51.440 Q 297.000 51.000 296.117 48.704 Z"/>
<path d="M 306.560 76.900 L 300.114 60.785 Q 299.000 58.000 301.942 57.412 L 311.965 55.407 Q 314.000 55.000 315.100 56.760 L 317.900 61.240 Q 319.000 63.000 318.016 64.827 L 312.562 74.957 Q 312.000 76.000 310.900 76.440 L 308.100 77.560 Q 307.000 78.000 306.560 76.900 Z"/>
<path d="M 321.434 80.032 L 326.566 44.968 Q 327.000 42.000 329.918 42.695 L 345.082 46.305 Q 348.000 47.000 350.683 45.658 L 359.317 41.342 Q 362.000 40.000 362.588 42.942 L 368.629 73.144 Q 369.000 75.000 367.900 76.540 L 365.100 80.460 Q 364.000 82.000 362.108 82.044 L 323.999 82.930 Q 321.000 83.000 321.434 80.032 Z"/>
<path d="M 23.943 132.001 L 23.057 84.999 Q 23.000 82.000 25.982 81.669 L 38.018 80.331 Q 41.000 80.000 41.000 83.000 L 41.000 137.000 Q 41.000 140.000 39.947 142.809 L 35.463 154.764 Q 35.000 156.000 33.680 156.000 L 30.320 156.000 Q 29.000 156.000 28.694 154.716 L 24.695 137.918 Q 24.000 135.000 23.943 132.001 Z"/>
<path d="M 24.903 260.632 L 23.076 215.865 Q 23.000 214.000 24.320 212.680 L 27.680 209.320 Q 29.000 208.000 30.529 209.071 L 36.800 213.460 Q 39.000 215.000 39.251 217.674 L 41.720 244.013 Q 42.000 247.000 41.009 249.832 L 35.783 264.764 Q 35.000 267.000 32.800 266.120 L 27.200 263.880 Q 25.000 263.000 24.903 260.632 Z"/>
<path d="M 26.750 290.255 L 25.227 273.498 Q 25.000 271.000 27.420 270.340 L 33.580 268.660 Q 36.000 268.000 36.277 270.493 L 38.737 292.635 Q 39.000 295.000 37.680 296.980 L 34.320 302.020 Q 33.000 304.000 31.860 301.911 L 28.320 295.420 Q 27.000 293.000 26.750 290.255 Z"/>
<path d="M 24.956 396.183 L 24.046 337.959 Q 24.000 335.000 26.200 336.980 L 32.136 342.322 Q 34.000 344.000 35.540 342.020 L 39.460 336.980 Q 41.000 335.000 41.072 337.507 L 42.932 402.631 Q 43.000 405.000 40.800 405.880 L 35.200 408.120 Q 33.000 409.000 31.520 407.150 L 26.760 401.200 Q 25.000 399.000 24.956 396.183 Z"/>
<path d="M 26.691 435.016 L 24.309 411.984 Q 24.000 409.000 26.970 408.576 L 36.299 407.243 Q 38.000 407.000 39.100 408.320 L 41.900 411.680 Q 43.000 413.000 42.837 414.711 L 41.284 431.014 Q 41.000 434.000 38.115 434.824 L 29.885 437.176 Q 27.000 438.000 26.691 435.016 Z"/>
<path d="M 585.941 124.342 L 585.067 84.999 Q 585.000 82.000 587.959 81.507 L 600.041 79.493 Q 603.000 79.000 603.000 82.000 L 603.000 125.282 Q 603.000 127.000 601.680 128.100 L 598.320 130.900 Q 597.000 132.000 595.436 131.289 L 588.420 128.100 Q 586.000 127.000 585.941 124.342 Z"/>
<path d="M 588.154 159.122 L 584.833 147.832 Q 584.000 145.000 586.640 146.320 L 594.623 150.311 Q 596.000 151.000 597.540 151.000 L 601.460 151.000 Q 603.000 151.000 603.000 152.540 L 603.000 165.000 Q 603.000 168.000 600.243 166.818 L 591.757 163.182 Q 589.000 162.000 588.154 159.122 Z"/>
<path d="M 584.000 230.000 L 584.000 165.000 Q 584.000 162.000 586.641 163.422 L 595.838 168.374 Q 597.000 169.000 598.320 169.000 L 601.680 169.000 Q 603.000 169.000 603.000 170.320 L 603.000 239.279 Q 603.000 242.000 600.360 242.660 L 593.640 244.340 Q 591.000 245.000 589.629 242.649 L 585.512 235.591 Q 584.000 233.000 584.000 230.000 Z"/>
<path d="M 584.036 355.108 L 584.942 307.999 Q 585.000 305.000 587.591 303.488 L 595.630 298.799 Q 597.000 298.000 598.320 298.880 L 601.680 301.120 Q 603.000 302.000 603.000 303.586 L 603.000 349.000 Q 603.000 352.000 600.722 353.952 L 590.437 362.768 Q 589.000 364.000 587.900 362.460 L 585.100 358.540 Q 584.000 357.000 584.036 355.108 Z"/>
<path d="M 584.095 411.632 L 584.883 391.933 Q 585.000 389.000 587.860 388.340 L 596.454 386.357 Q 598.000 386.000 599.320 386.880 L 602.680 389.120 Q 604.000 390.000 604.000 391.586 L 604.000 419.000 Q 604.000 422.000 601.023 422.372 L 590.351 423.706 Q 588.000 424.000 587.120 421.800 L 584.880 416.200 Q 584.000 414.000 584.095 411.632 Z"/>
<path d="M 225.120 790.002 L 225.880 770.998 Q 226.000 768.000 227.630 765.481 L 235.370 753.519 Q 237.000 751.000 239.905 751.750 L 265.095 758.250 Q 268.000 759.000 270.441 760.744 L 286.559 772.256 Q 289.000 774.000 289.903 776.861 L 294.097 790.139 Q 295.000 793.000 293.226 795.419 L 285.774 805.581 Q 284.000 808.000 281.181 809.025 L 264.819 814.975 Q 262.000 816.000 259.141 815.090 L 242.859 809.910 Q 240.000 809.000 237.948 806.811 L 227.052 795.189 Q 225.000 793.000 225.120 790.002 Z"/>
<path d="M 294.405 800.028 L 296.595 783.972 Q 297.000 781.000 299.974 780.604 L 309.026 779.396 Q 312.000 779.000 314.441 780.744 L 323.559 787.256 Q 326.000 789.000 324.858 791.774 L 320.142 803.226 Q 319.000 806.000 316.476 807.622 L 307.524 813.378 Q 305.000 815.000 302.973 812.789 L 296.027 805.211 Q 294.000 803.000 294.405 800.028 Z"/>
<path d="M 226.086 849.001 L 226.914 819.999 Q 227.000 817.000 229.959 817.493 L 242.041 819.507 Q 245.000 820.000 247.803 821.068 L 263.197 826.932 Q 266.000 828.000 268.796 826.913 L 281.204 822.087 Q 284.000 821.000 284.299 823.985 L 286.701 848.015 Q 287.000 851.000 284.000 851.049 L 229.000 851.951 Q 226.000 852.000 226.086 849.001 Z"/>
<path d="M 349.903 810.002 L 349.097 784.998 Q 349.000 782.000 351.959 782.493 L 370.041 785.507 Q 373.000 786.000 375.629 787.446 L 390.371 795.554 Q 393.000 797.000 394.241 799.731 L 401.759 816.269 Q 403.000 819.000 401.126 821.343 L 392.874 831.657 Q 391.000 834.000 388.016 833.686 L 374.984 832.314 Q 372.000 832.000 369.730 830.039 L 352.270 814.961 Q 350.000 813.000 349.903 810.002 Z"/>
<path d="M 411.800 850.007 L 410.200 825.993 Q 410.000 823.000 412.615 821.529 L 423.385 815.471 Q 426.000 814.000 428.731 815.241 L 445.269 822.759 Q 448.000 824.000 448.588 826.942 L 452.412 846.058 Q 453.000 849.000 450.014 849.291 L 414.986 852.709 Q 412.000 853.000 411.800 850.007 Z"/>
<path d="M 551.694 822.016 L 548.306 788.984 Q 548.000 786.000 550.910 786.728 L 573.090 792.272 Q 576.000 793.000 578.448 794.734 L 597.552 808.266 Q 600.000 810.000 600.073 812.999 L 600.927 848.001 Q 601.000 851.000 598.001 850.921 L 565.999 850.079 Q 563.000 850.000 561.792 847.254 L 553.208 827.746 Q 552.000 825.000 551.694 822.016 Z"/>
<path d="M 514.227 848.101 L 507.773 823.899 Q 507.000 821.000 509.748 819.798 L 520.252 815.202 Q 523.000 814.000 525.560 815.564 L 538.440 823.436 Q 541.000 825.000 541.357 827.979 L 543.643 847.021 Q 544.000 850.000 541.002 850.103 L 517.998 850.897 Q 515.000 851.000 514.227 848.101 Z"/>
<path d="M 23.000 848.000 L 23.000 790.000 Q 23.000 787.000 25.925 786.335 L 42.075 782.665 Q 45.000 782.000 47.519 783.630 L 59.481 791.370 Q 62.000 793.000 62.763 795.901 L 66.237 809.099 Q 67.000 812.000 66.148 814.876 L 59.852 836.124 Q 59.000 839.000 57.200 841.400 L 51.800 848.600 Q 50.000 851.000 47.000 851.000 L 26.000 851.000 Q 23.000 851.000 23.000 848.000 Z"/>
<path d="M 460.5199 35.2365 C 456.2269 44.6078 451.9339 53.9791 447.6410 63.3504 C 441.4787 54.7664 435.3164 46.1824 429.1541 37.5984 C 439.6094 36.8111 450.0646 36.0238 460.5199 35.2365 Z M 452.0511 28.6668 C 452.9388 25.6802 453.8265 22.6935 454.7142 19.7069 C 458.7023 19.2710 462.6903 18.8351 466.6783 18.3992 C 470.2897 23.7865 473.9010 29.1738 477.5124 34.5612 C 476.0314 37.7834 474.5503 41.0057 473.0693 44.2279 C 470.1635 44.6726 467.2577 45.1173 464.3519 45.5619 C 465.7542 42.2810 467.1564 39.0000 468.5587 35.7191 C 466.2978 32.5038 464.0370 29.2885 461.7762 26.0731 C 458.5345 26.9377 455.2928 27.8023 452.0511 28.6668 Z M 457.7863 59.3140 C 459.2012 61.8428 460.6161 64.3717 462.0310 66.9005 C 460.5777 70.0216 459.1244 73.1428 457.6710 76.2639 C 451.4400 76.9159 445.2090 77.5680 438.9780 78.2201 C 436.6325 75.4543 434.2869 72.6885 431.9414 69.9227 C 433.1197 66.9256 434.2981 63.9285 435.4765 60.9315 C 437.6026 64.0191 439.7288 67.1067 441.8549 70.1944 C 445.5038 69.9704 449.1527 69.7465 452.8016 69.5226 C 454.4632 66.1197 456.1248 62.7168 457.7863 59.3140 Z M 428.0248 47.7618 C 425.0380 48.4398 422.0512 49.1179 419.0644 49.7959 C 416.6915 46.7281 414.3185 43.6603 411.9456 40.5925 C 414.7307 34.6512 417.5158 28.7098 420.3008 22.7685 C 423.8632 22.3781 427.4255 21.9878 430.9879 21.5975 C 433.0317 24.0150 435.0756 26.4326 437.1194 28.8502 C 433.9206 29.0758 430.7218 29.3014 427.5230 29.5270 C 425.5041 33.5329 423.4852 37.5387 421.4662 41.5445 C 423.6524 43.6170 425.8386 45.6894 428.0248 47.7618 Z"/>
<path d="M 358.0939 33.8686 C 353.1145 31.4815 348.1350 29.0945 343.1556 26.7074 C 347.8111 23.4869 352.4666 20.2665 357.1220 17.0460 C 357.4460 22.6535 357.7700 28.2611 358.0939 33.8686 Z M 361.6920 29.3939 C 363.2834 29.8973 364.8749 30.4007 366.4663 30.9041 C 366.6625 33.0443 366.8587 35.1845 367.0549 37.3247 C 364.1355 39.2087 361.2162 41.0927 358.2968 42.9767 C 356.5847 42.1533 354.8726 41.3298 353.1605 40.5064 C 352.9495 38.9458 352.7384 37.3852 352.5274 35.8246 C 354.2717 36.6064 356.0160 37.3882 357.7602 38.1699 C 359.5036 36.9890 361.2470 35.8081 362.9903 34.6272 C 362.5576 32.8828 362.1248 31.1383 361.6920 29.3939 Z M 345.2228 32.1793 C 343.8550 32.9135 342.4872 33.6477 341.1195 34.3820 C 339.4613 33.5743 337.8031 32.7667 336.1449 31.9591 C 335.8539 28.6155 335.5629 25.2718 335.2719 21.9282 C 336.7753 20.6977 338.2786 19.4672 339.7820 18.2367 C 341.3763 18.8959 342.9707 19.5551 344.5650 20.2143 C 342.8913 21.3243 341.2175 22.4342 339.5438 23.5442 C 339.6297 25.5008 339.7155 27.4573 339.8013 29.4139 C 341.6085 30.3357 343.4156 31.2575 345.2228 32.1793 Z M 351.6888 16.3461 C 351.3535 14.7399 351.0182 13.1338 350.6830 11.5276 C 352.3484 10.2852 354.0138 9.0429 355.6792 7.8006 C 358.8355 9.3479 361.9919 10.8952 365.1482 12.4425 C 365.3240 14.3543 365.4997 16.2661 365.6755 18.1778 C 364.3615 19.2500 363.0474 20.3221 361.7334 21.3942 C 361.6425 19.6788 361.5515 17.9633 361.4606 16.2478 C 359.3338 15.1289 357.2070 14.0101 355.0802 12.8912 C 353.9497 14.0428 352.8193 15.1945 351.6888 16.3461 Z"/>
<path d="M 3.7732 177.1524 C 10.6278 179.0679 17.4825 180.9833 24.3372 182.8988 C 19.1488 188.0285 13.9603 193.1582 8.7719 198.2879 C 7.1056 191.2428 5.4394 184.1976 3.7732 177.1524 Z M 0.2076 183.6375 C -1.9251 183.3547 -4.0578 183.0719 -6.1905 182.7891 C -6.9186 180.1165 -7.6466 177.4438 -8.3747 174.7712 C -5.0907 171.7264 -1.8068 168.6816 1.4772 165.6369 C 3.8347 166.2988 6.1921 166.9608 8.5496 167.6228 C 9.1667 169.5564 9.7838 171.4901 10.4009 173.4237 C 8.0120 172.8218 5.6230 172.2199 3.2340 171.6180 C 1.2854 173.5072 -0.6631 175.3963 -2.6117 177.2854 C -1.6719 179.4028 -0.7322 181.5201 0.2076 183.6375 Z M 20.4887 176.4159 C 22.0605 175.1778 23.6323 173.9398 25.2040 172.7017 C 27.4895 173.3557 29.7750 174.0097 32.0606 174.6637 C 33.1783 178.8426 34.2960 183.0216 35.4137 187.2006 C 33.7809 189.0989 32.1481 190.9973 30.5152 192.8956 C 28.3440 192.4157 26.1728 191.9358 24.0015 191.4560 C 25.8776 189.6725 27.7536 187.8890 29.6297 186.1055 C 29.0828 183.6412 28.5360 181.1769 27.9891 178.7127 C 25.4890 177.9471 22.9888 177.1815 20.4887 176.4159 Z M 15.8250 197.9603 C 16.6101 199.9240 17.3951 201.8877 18.1801 203.8514 C 16.3443 205.8010 14.5084 207.7507 12.6726 209.7003 C 8.3199 208.4427 3.9672 207.1851 -0.3855 205.9275 C -1.0365 203.5402 -1.6874 201.1530 -2.3384 198.7657 C -0.9105 197.1107 0.5175 195.4557 1.9454 193.8008 C 2.4448 195.9579 2.9442 198.1150 3.4436 200.2721 C 6.3936 201.2163 9.3435 202.1605 12.2935 203.1047 C 13.4707 201.3899 14.6478 199.6751 15.8250 197.9603 Z"/>
<path d="M 616.4685 268.2961 C 612.8804 276.5041 609.2923 284.7120 605.7042 292.9200 C 600.2195 285.5547 594.7348 278.1894 589.2501 270.8241 C 598.3229 269.9815 607.3957 269.1388 616.4685 268.2961 Z M 609.0102 262.7161 C 609.7362 260.1075 610.4623 257.4989 611.1883 254.8903 C 614.6470 254.4510 618.1056 254.0118 621.5643 253.5725 C 624.7839 258.1989 628.0036 262.8252 631.2233 267.4516 C 629.9853 270.2739 628.7472 273.0962 627.5092 275.9186 C 624.9911 276.3490 622.4729 276.7795 619.9548 277.2099 C 621.1235 274.3378 622.2921 271.4657 623.4608 268.5935 C 621.4476 265.8340 619.4343 263.0744 617.4211 260.3149 C 614.6175 261.1153 611.8138 261.9157 609.0102 262.7161 Z M 614.4584 289.2589 C 615.7262 291.4348 616.9940 293.6107 618.2617 295.7865 C 617.0463 298.5206 615.8308 301.2546 614.6153 303.9886 C 609.2110 304.6497 603.8067 305.3108 598.4024 305.9719 C 596.3223 303.6043 594.2423 301.2366 592.1623 298.8690 C 593.1407 296.2469 594.1191 293.6248 595.0976 291.0027 C 596.9919 293.6533 598.8861 296.3040 600.7804 298.9546 C 603.9476 298.7047 607.1148 298.4548 610.2820 298.2049 C 611.6741 295.2229 613.0663 292.2409 614.4584 289.2589 Z M 588.4230 279.6724 C 585.8380 280.3069 583.2530 280.9413 580.6680 281.5758 C 578.5596 278.9461 576.4512 276.3165 574.3428 273.6868 C 576.6727 268.4820 579.0025 263.2772 581.3324 258.0725 C 584.4219 257.6793 587.5114 257.2861 590.6008 256.8929 C 592.4134 258.9625 594.2260 261.0322 596.0385 263.1019 C 593.2625 263.3464 590.4865 263.5910 587.7104 263.8356 C 586.0169 267.3469 584.3234 270.8582 582.6298 274.3696 C 584.5609 276.1372 586.4919 277.9048 588.4230 279.6724 Z"/>
<path d="M 467.3476 755.0722 C 471.7032 755.8099 476.0588 756.5476 480.4144 757.2852 C 477.5445 760.7884 474.6745 764.2915 471.8046 767.7947 C 470.3189 763.5538 468.8333 759.3130 467.3476 755.0722 Z M 465.5674 759.3067 C 464.2325 759.2705 462.8977 759.2343 461.5628 759.1982 C 460.9400 757.5956 460.3172 755.9930 459.6944 754.3905 C 461.5240 752.2979 463.3536 750.2053 465.1832 748.1128 C 466.6814 748.3685 468.1796 748.6241 469.6778 748.8798 C 470.1842 750.0334 470.6906 751.1870 471.1970 752.3406 C 469.6832 752.1240 468.1695 751.9074 466.6557 751.6909 C 465.5755 752.9835 464.4952 754.2760 463.4150 755.5686 C 464.1324 756.8146 464.8499 758.0607 465.5674 759.3067 Z M 477.6182 753.5331 C 478.5081 752.6669 479.3980 751.8006 480.2879 750.9344 C 481.7412 751.1898 483.1944 751.4453 484.6477 751.7007 C 485.6088 754.2078 486.5699 756.7149 487.5309 759.2220 C 486.6462 760.4998 485.7614 761.7776 484.8766 763.0553 C 483.5052 762.9000 482.1338 762.7446 480.7624 762.5892 C 481.8048 761.3666 482.8471 760.1440 483.8895 758.9213 C 483.3920 757.4356 482.8946 755.9499 482.3971 754.4642 C 480.8041 754.1539 479.2111 753.8435 477.6182 753.5331 Z M 476.1371 767.1348 C 476.7491 768.2960 477.3611 769.4573 477.9731 770.6185 C 476.9664 771.9411 475.9596 773.2637 474.9528 774.5863 C 472.1844 774.0924 469.4159 773.5985 466.6475 773.1046 C 466.0907 771.6732 465.5340 770.2418 464.9773 768.8104 C 465.7514 767.6962 466.5255 766.5819 467.2995 765.4677 C 467.7478 766.7668 468.1960 768.0660 468.6442 769.3652 C 470.5264 769.7566 472.4087 770.1481 474.2909 770.5395 C 474.9063 769.4046 475.5217 768.2697 476.1371 767.1348 Z"/>
<path d="M 478.5132 822.6046 C 474.1104 831.7888 469.7076 840.9731 465.3047 850.1574 C 459.3648 841.5707 453.4248 832.9839 447.4849 824.3971 C 457.8276 823.7996 468.1704 823.2021 478.5132 822.6046 Z M 470.2599 815.9681 C 471.1884 813.0327 472.1169 810.0974 473.0454 807.1621 C 476.9928 806.8002 480.9403 806.4383 484.8878 806.0765 C 488.3627 811.4611 491.8376 816.8458 495.3125 822.2304 C 493.7938 825.3883 492.2750 828.5462 490.7563 831.7040 C 487.8779 832.0932 484.9994 832.4824 482.1210 832.8716 C 483.5629 829.6544 485.0048 826.4372 486.4467 823.2200 C 484.2686 820.0045 482.0905 816.7889 479.9124 813.5734 C 476.6949 814.3716 473.4774 815.1698 470.2599 815.9681 Z M 475.3974 846.3447 C 476.7516 848.8674 478.1058 851.3902 479.4601 853.9129 C 477.9705 856.9714 476.4808 860.0298 474.9912 863.0883 C 468.8241 863.6250 462.6570 864.1618 456.4898 864.6985 C 454.2202 861.9256 451.9507 859.1527 449.6811 856.3798 C 450.8969 853.4392 452.1128 850.4986 453.3286 847.5579 C 455.3759 850.6450 457.4232 853.7321 459.4704 856.8192 C 463.0792 856.6609 466.6880 856.5026 470.2968 856.3443 C 471.9970 853.0111 473.6972 849.6779 475.3974 846.3447 Z M 446.1939 834.4185 C 443.2314 835.0369 440.2689 835.6553 437.3064 836.2736 C 435.0150 833.2019 432.7236 830.1301 430.4322 827.0584 C 433.2861 821.2367 436.1401 815.4150 438.9940 809.5933 C 442.5202 809.2691 446.0463 808.9449 449.5725 808.6207 C 451.5499 811.0444 453.5274 813.4681 455.5049 815.8917 C 452.3408 816.0595 449.1767 816.2272 446.0126 816.3949 C 443.9489 820.3177 441.8853 824.2404 439.8216 828.1631 C 441.9457 830.2482 444.0698 832.3334 446.1939 834.4185 Z"/>
</g></mask></defs>
<g clip-path="url(#metal-observed)"><rect width="630" height="880" fill="currentColor" mask="url(#metal-network)"/></g>
</svg>
