<svg xmlns="http://www.w3.org/2000/svg" width="1500" height="2199" viewBox="0 0 500 733"><rect width="500" height="733" fill="#000"/><g fill="#b00000"><rect x="60" y="136" width="382" height="382"/></g><g transform="scale(.7451565 .750256)"><path d="M255 197 L301 210 L338 182 L363 210 L379 230 L401 245 Q452 245 478 266 L473 287 L447 308 L441 340 Q478 376 480 414 Q477 445 457 456 L441 449 L432 485 L421 523 L428 576 L437 615 Q440 637 422 647 L393 647 L371 625 L341 668 Q319 692 296 679 L272 659 L250 644 L226 613 L211 584 L180 554 Q164 537 173 517 Q182 490 210 501 L230 510 L257 510 L286 521 L307 540 L312 512 L322 485 L302 471 L278 450 Q259 423 264 399 L272 364 L258 386 Q237 401 217 399 L209 386 L215 353 L228 315 L240 295 L253 277 L259 249 Z" fill="#390000"/></g><g transform="scale(.7451565 .750256)"><path d="M237 335 Q154 349 133 405 Q111 457 173 501 M462 454 Q515 462 460 506 L438 515" fill="none" stroke="#500000" stroke-width="18"/></g></svg>