<svg xmlns="http://www.w3.org/2000/svg" viewBox="0 0 90 90">
<title>metal symbol geometry — source-derived component</title>
<desc>Monochrome geometry only. Positive glyph silhouette, not pigment polarity. Not a complete family master. See research/reverse-ink/review/symbols for provenance and review status.</desc>
<path fill="currentColor" fill-rule="evenodd" d="M 39.1181 27.5000 C 49.1120 34.6582 59.1060 41.8165 69.0999 48.9747 C 57.6485 54.2355 46.1971 59.4962 34.7456 64.7569 C 36.2031 52.3379 37.6606 39.9190 39.1181 27.5000 Z M 29.5000 35.9193 C 26.2056 34.2004 22.9111 32.4816 19.6167 30.7627 C 20.0139 25.9948 20.4111 21.2269 20.8083 16.4590 C 27.9370 13.4571 35.0657 10.4553 42.1943 7.4535 C 45.6295 9.9205 49.0648 12.3876 52.5000 14.8547 C 52.3593 18.3576 52.2186 21.8606 52.0780 25.3635 C 48.5561 22.9753 45.0342 20.5872 41.5124 18.1990 C 37.2338 20.1140 32.9552 22.0290 28.6766 23.9441 C 28.9511 27.9358 29.2255 31.9275 29.5000 35.9193 Z M 66.6832 36.1792 C 69.9657 35.0983 73.2481 34.0173 76.5306 32.9364 C 79.8537 35.3480 83.1769 37.7596 86.5000 40.1712 C 85.8454 47.6142 85.1909 55.0571 84.5363 62.5000 C 80.7647 64.6165 76.9931 66.7331 73.2215 68.8496 C 69.9810 66.7881 66.7405 64.7266 63.5000 62.6650 C 67.5985 60.8786 71.6969 59.0922 75.7954 57.3058 C 76.3636 52.9831 76.9318 48.6604 77.5000 44.3377 C 73.8944 41.6182 70.2888 38.8987 66.6832 36.1792 Z M 46.3868 68.3917 C 46.5009 72.0426 46.6150 75.6935 46.7291 79.3444 C 42.5977 81.4243 38.4663 83.5041 34.3349 85.5840 C 28.0132 80.9716 21.6915 76.3591 15.3698 71.7467 C 15.7235 67.4874 16.0772 63.2282 16.4309 58.9690 C 19.7262 57.1265 23.0215 55.2839 26.3168 53.4414 C 25.8530 57.2375 25.3892 61.0336 24.9255 64.8297 C 29.1556 68.1048 33.3857 71.3799 37.6159 74.6550 C 40.5395 72.5672 43.4631 70.4795 46.3868 68.3917 Z"/>
</svg>
